<svg width="30" height="30" viewBox="0 0 30 30" fill="none" xmlns="http://www.w3.org/2000/svg">
<path fill-rule="evenodd" clip-rule="evenodd" d="M21.6837 11.395C21.8111 11.289 21.9753 11.2378 22.1403 11.2528C22.3053 11.2678 22.4576 11.3477 22.5637 11.475L25.1675 14.6C25.2689 14.7278 25.3163 14.8902 25.2996 15.0525C25.2829 15.2148 25.2033 15.3642 25.078 15.4686C24.9527 15.5731 24.7914 15.6244 24.6288 15.6115C24.4661 15.5987 24.3149 15.5228 24.2075 15.4L21.6037 12.275C21.4977 12.1477 21.4466 11.9834 21.4616 11.8184C21.4766 11.6534 21.5565 11.5011 21.6837 11.395Z" fill="white" stroke="white" stroke-width="0.8"/>
<path fill-rule="evenodd" clip-rule="evenodd" d="M21.6837 18.6049C21.5565 18.4988 21.4766 18.3465 21.4616 18.1815C21.4466 18.0165 21.4977 17.8523 21.6037 17.7249L24.2075 14.5999C24.2593 14.5346 24.3236 14.4804 24.3967 14.4403C24.4698 14.4003 24.5501 14.3752 24.633 14.3667C24.7159 14.3582 24.7997 14.3663 24.8794 14.3906C24.9591 14.4149 25.0332 14.4549 25.0972 14.5083C25.1612 14.5616 25.2139 14.6272 25.2522 14.7013C25.2905 14.7753 25.3136 14.8562 25.3202 14.9393C25.3267 15.0224 25.3166 15.1059 25.2904 15.185C25.2641 15.2641 25.2224 15.3372 25.1675 15.3999L22.5637 18.5249C22.4576 18.6522 22.3053 18.7321 22.1403 18.7471C21.9753 18.7621 21.8111 18.711 21.6837 18.6049Z" fill="white" stroke="white" stroke-width="0.8"/>
<path fill-rule="evenodd" clip-rule="evenodd" d="M24.375 15C24.375 15.1658 24.3092 15.3247 24.1919 15.4419C24.0747 15.5592 23.9158 15.625 23.75 15.625H14.375C14.2092 15.625 14.0503 15.5592 13.9331 15.4419C13.8158 15.3247 13.75 15.1658 13.75 15C13.75 14.8342 13.8158 14.6753 13.9331 14.5581C14.0503 14.4408 14.2092 14.375 14.375 14.375H23.75C23.9158 14.375 24.0747 14.4408 24.1919 14.5581C24.3092 14.6753 24.375 14.8342 24.375 15ZM6.875 6.25C6.875 6.08424 6.94085 5.92527 7.05806 5.80806C7.17527 5.69085 7.33424 5.625 7.5 5.625H18.75C18.9158 5.625 19.0747 5.69085 19.1919 5.80806C19.3092 5.92527 19.375 6.08424 19.375 6.25C19.375 6.41576 19.3092 6.57473 19.1919 6.69194C19.0747 6.80915 18.9158 6.875 18.75 6.875H7.5C7.33424 6.875 7.17527 6.80915 7.05806 6.69194C6.94085 6.57473 6.875 6.41576 6.875 6.25ZM6.875 23.75C6.875 23.5842 6.94085 23.4253 7.05806 23.3081C7.17527 23.1908 7.33424 23.125 7.5 23.125H18.75C18.9158 23.125 19.0747 23.1908 19.1919 23.3081C19.3092 23.4253 19.375 23.5842 19.375 23.75C19.375 23.9158 19.3092 24.0747 19.1919 24.1919C19.0747 24.3092 18.9158 24.375 18.75 24.375H7.5C7.33424 24.375 7.17527 24.3092 7.05806 24.1919C6.94085 24.0747 6.875 23.9158 6.875 23.75Z" fill="white" stroke="white" stroke-width="0.8"/>
<path fill-rule="evenodd" clip-rule="evenodd" d="M18.75 5.625C18.9158 5.625 19.0747 5.69085 19.1919 5.80806C19.3092 5.92527 19.375 6.08424 19.375 6.25V10.25C19.375 10.4158 19.3092 10.5747 19.1919 10.6919C19.0747 10.8092 18.9158 10.875 18.75 10.875C18.5842 10.875 18.4253 10.8092 18.3081 10.6919C18.1908 10.5747 18.125 10.4158 18.125 10.25V6.25C18.125 6.08424 18.1908 5.92527 18.3081 5.80806C18.4253 5.69085 18.5842 5.625 18.75 5.625ZM18.75 19.125C18.9158 19.125 19.0747 19.1908 19.1919 19.3081C19.3092 19.4253 19.375 19.5842 19.375 19.75V23.75C19.375 23.9158 19.3092 24.0747 19.1919 24.1919C19.0747 24.3092 18.9158 24.375 18.75 24.375C18.5842 24.375 18.4253 24.3092 18.3081 24.1919C18.1908 24.0747 18.125 23.9158 18.125 23.75V19.75C18.125 19.5842 18.1908 19.4253 18.3081 19.3081C18.4253 19.1908 18.5842 19.125 18.75 19.125ZM7.5 5.625C7.66576 5.625 7.82473 5.69085 7.94194 5.80806C8.05915 5.92527 8.125 6.08424 8.125 6.25V23.75C8.125 23.9158 8.05915 24.0747 7.94194 24.1919C7.82473 24.3092 7.66576 24.375 7.5 24.375C7.33424 24.375 7.17527 24.3092 7.05806 24.1919C6.94085 24.0747 6.875 23.9158 6.875 23.75V6.25C6.875 6.08424 6.94085 5.92527 7.05806 5.80806C7.17527 5.69085 7.33424 5.625 7.5 5.625Z" fill="white" stroke="white" stroke-width="0.8"/>
</svg>
