<svg width="24" height="24" viewBox="0 0 24 24" fill="none" xmlns="http://www.w3.org/2000/svg">
<path d="M12.0004 14.3999L11.3442 15.1545C11.7205 15.4817 12.2803 15.4817 12.6566 15.1545L12.0004 14.3999ZM6.87357 15.2542C7.40485 15.1033 7.71323 14.5503 7.56235 14.0191C7.41148 13.4878 6.85849 13.1794 6.32721 13.3303L6.87357 15.2542ZM17.6736 13.3303C17.1423 13.1794 16.5893 13.4878 16.4384 14.0191C16.2876 14.5503 16.5959 15.1033 17.1272 15.2542L17.6736 13.3303ZM16.8004 7.09555H15.8004C15.8004 7.64012 15.5851 8.31631 15.1709 9.08156C14.764 9.83343 14.2089 10.5919 13.6333 11.2801C13.0605 11.9649 12.4849 12.5597 12.0511 12.984C11.8348 13.1955 11.6553 13.3633 11.5311 13.4771C11.469 13.534 11.4209 13.5773 11.3889 13.6058C11.373 13.62 11.361 13.6305 11.3535 13.6372C11.3497 13.6405 11.347 13.6428 11.3455 13.6442C11.3447 13.6449 11.3442 13.6453 11.344 13.6455C11.3439 13.6456 11.3438 13.6456 11.3439 13.6456C11.3439 13.6456 11.344 13.6455 11.344 13.6455C11.3441 13.6454 11.3442 13.6453 12.0004 14.3999C12.6566 15.1545 12.6567 15.1544 12.6569 15.1542C12.657 15.1542 12.6572 15.154 12.6573 15.1538C12.6577 15.1536 12.6581 15.1532 12.6585 15.1528C12.6595 15.152 12.6607 15.1509 12.6623 15.1495C12.6653 15.1469 12.6695 15.1432 12.6748 15.1385C12.6854 15.1292 12.7005 15.1159 12.7197 15.0988C12.758 15.0646 12.813 15.0152 12.8822 14.9518C13.0204 14.8251 13.216 14.6423 13.4497 14.4136C13.9159 13.9575 14.5403 13.3131 15.1675 12.5632C15.7919 11.8166 16.4368 10.9446 16.9299 10.0335C17.4157 9.13567 17.8004 8.1162 17.8004 7.09555H16.8004ZM12.0004 14.3999C12.6566 13.6453 12.6567 13.6454 12.6568 13.6455C12.6568 13.6455 12.6569 13.6456 12.6569 13.6456C12.6569 13.6456 12.6569 13.6456 12.6568 13.6455C12.6566 13.6453 12.6561 13.6449 12.6553 13.6442C12.6537 13.6428 12.6511 13.6405 12.6473 13.6372C12.6397 13.6305 12.6278 13.62 12.6119 13.6058C12.5799 13.5773 12.5317 13.534 12.4697 13.4771C12.3454 13.3633 12.166 13.1955 11.9497 12.984C11.5159 12.5597 10.9403 11.9649 10.3675 11.2801C9.7919 10.5919 9.23676 9.83343 8.82986 9.08156C8.41573 8.31631 8.20039 7.64012 8.20039 7.09555H7.20039H6.20039C6.20039 8.1162 6.58506 9.13567 7.07092 10.0335C7.56403 10.9446 8.20888 11.8166 8.83331 12.5632C9.46052 13.3131 10.0849 13.9575 10.5511 14.4136C10.7848 14.6423 10.9803 14.8251 11.1186 14.9518C11.1878 15.0152 11.2428 15.0646 11.2811 15.0988C11.3003 15.1159 11.3153 15.1292 11.326 15.1385C11.3313 15.1432 11.3355 15.1469 11.3385 15.1495C11.34 15.1509 11.3413 15.152 11.3422 15.1528C11.3427 15.1532 11.3431 15.1536 11.3434 15.1538C11.3436 15.154 11.3438 15.1542 11.3439 15.1542C11.3441 15.1544 11.3442 15.1545 12.0004 14.3999ZM7.20039 7.09555H8.20039C8.20039 5.07511 9.88088 3.3999 12.0004 3.3999V2.3999V1.3999C8.81797 1.3999 6.20039 3.92933 6.20039 7.09555H7.20039ZM12.0004 2.3999V3.3999C14.1199 3.3999 15.8004 5.07511 15.8004 7.09555H16.8004H17.8004C17.8004 3.92933 15.1828 1.3999 12.0004 1.3999V2.3999ZM21.6004 17.5999H20.6004C20.6004 17.8038 20.5054 18.0886 20.1442 18.4445C19.7794 18.8038 19.2003 19.1735 18.404 19.5053C16.8158 20.167 14.5523 20.5999 12.0004 20.5999V21.5999V22.5999C14.7504 22.5999 17.2869 22.1374 19.1732 21.3514C20.1142 20.9593 20.9409 20.467 21.5478 19.8693C22.1581 19.268 22.6004 18.5005 22.6004 17.5999H21.6004ZM12.0004 21.5999V20.5999C9.44845 20.5999 7.18502 20.167 5.59678 19.5053C4.80048 19.1735 4.22135 18.8038 3.85659 18.4445C3.49535 18.0886 3.40039 17.8038 3.40039 17.5999H2.40039H1.40039C1.40039 18.5005 1.84269 19.268 2.45302 19.8693C3.05983 20.467 3.88659 20.9593 4.82755 21.3514C6.71383 22.1374 9.25039 22.5999 12.0004 22.5999V21.5999ZM2.40039 17.5999H3.40039C3.40039 17.3489 3.55143 16.9617 4.16014 16.4925C4.75881 16.0311 5.67899 15.5934 6.87357 15.2542L6.60039 14.2922L6.32721 13.3303C4.98646 13.711 3.80664 14.2398 2.93915 14.9085C2.08169 15.5694 1.40039 16.476 1.40039 17.5999H2.40039ZM17.4004 14.2922L17.1272 15.2542C18.3218 15.5934 19.242 16.0311 19.8406 16.4925C20.4493 16.9617 20.6004 17.3489 20.6004 17.5999H21.6004H22.6004C22.6004 16.476 21.9191 15.5694 21.0616 14.9085C20.1941 14.2398 19.0143 13.711 17.6736 13.3303L17.4004 14.2922Z" fill="#6D54CE"/>
</svg>
