<svg width="12" height="12" viewBox="0 0 12 12" fill="none" xmlns="http://www.w3.org/2000/svg">
<path d="M5.82133 3.59141C5.64455 3.37927 5.32927 3.35061 5.11713 3.52739C4.90499 3.70417 4.87633 4.01945 5.05311 4.23159L5.82133 3.59141ZM7.09451 5.90025L7.47862 6.22034C7.63314 6.03492 7.63314 5.76558 7.47862 5.58016L7.09451 5.90025ZM5.05311 7.56891C4.87633 7.78105 4.90499 8.09633 5.11713 8.27311C5.32927 8.44989 5.64455 8.42123 5.82133 8.20909L5.05311 7.56891ZM5.43722 3.9115L5.05311 4.23159L6.7104 6.22034L7.09451 5.90025L7.47862 5.58016L5.82133 3.59141L5.43722 3.9115ZM7.09451 5.90025L6.7104 5.58016L5.05311 7.56891L5.43722 7.889L5.82133 8.20909L7.47862 6.22034L7.09451 5.90025ZM6 1.5L6 2C8.20914 2 10 3.79086 10 6L10.5 6L11 6C11 3.23858 8.76142 1 6 1L6 1.5ZM10.5 6L10 6C10 8.20914 8.20914 10 6 10L6 10.5L6 11C8.76142 11 11 8.76142 11 6L10.5 6ZM6 10.5L6 10C3.79086 10 2 8.20914 2 6L1.5 6L1 6C1 8.76142 3.23858 11 6 11L6 10.5ZM1.5 6L2 6C2 3.79086 3.79086 2 6 2L6 1.5L6 1C3.23858 1 1 3.23858 1 6L1.5 6Z" fill="white"/>
</svg>
