<svg width="36" height="36" viewBox="0 0 36 36" fill="none" xmlns="http://www.w3.org/2000/svg">
<path d="M24.9057 17.0799C25.33 16.7263 25.3873 16.0958 25.0337 15.6715C24.6802 15.2472 24.0496 15.1899 23.6253 15.5434L24.9057 17.0799ZM18.2992 21.2835L17.6591 22.0518C18.0299 22.3608 18.5686 22.3608 18.9394 22.0518L18.2992 21.2835ZM12.9732 15.5434C12.5489 15.1899 11.9183 15.2472 11.5648 15.6715C11.2112 16.0958 11.2685 16.7263 11.6928 17.0799L12.9732 15.5434ZM24.2655 16.3117L23.6253 15.5434L17.6591 20.5153L18.2992 21.2835L18.9394 22.0518L24.9057 17.0799L24.2655 16.3117ZM18.2992 21.2835L18.9394 20.5153L12.9732 15.5434L12.333 16.3117L11.6928 17.0799L17.6591 22.0518L18.2992 21.2835ZM31.5 18H30.5C30.5 24.9036 24.9036 30.5 18 30.5V31.5V32.5C26.0081 32.5 32.5 26.0081 32.5 18H31.5ZM18 31.5V30.5C11.0964 30.5 5.5 24.9036 5.5 18H4.5H3.5C3.5 26.0081 9.99187 32.5 18 32.5V31.5ZM4.5 18H5.5C5.5 11.0964 11.0964 5.5 18 5.5V4.5V3.5C9.99187 3.5 3.5 9.99187 3.5 18H4.5ZM18 4.5V5.5C24.9036 5.5 30.5 11.0964 30.5 18H31.5H32.5C32.5 9.99187 26.0081 3.5 18 3.5V4.5Z" fill="white"/>
</svg>
