<svg width="32" height="32" viewBox="0 0 32 32" fill="none" xmlns="http://www.w3.org/2000/svg">
<path d="M16 32C24.8366 32 32 24.8366 32 16C32 7.16344 24.8366 0 16 0C7.16344 0 0 7.16344 0 16C0 24.8366 7.16344 32 16 32Z" fill="#FFED89"/>
<path d="M17.4866 9.46347L18.9357 8.01433C19.0354 7.91469 19.1144 7.79641 19.1683 7.66623C19.2222 7.53605 19.25 7.39653 19.25 7.25562C19.25 7.11472 19.2222 6.97519 19.1683 6.84501C19.1144 6.71483 19.0354 6.59655 18.9357 6.49692C18.8361 6.39728 18.7178 6.31825 18.5876 6.26432C18.4575 6.2104 18.3179 6.18265 18.177 6.18265C18.0361 6.18265 17.8966 6.2104 17.7664 6.26432C17.6362 6.31825 17.518 6.39728 17.4183 6.49692L15.9692 7.94606C16.0896 8.04368 16.205 8.14732 16.3149 8.25659L17.4866 9.46347Z" fill="#040000"/>
<path d="M21.3825 17.6694C21.0675 17.3503 20.8623 16.9391 20.7967 16.4955L20.7615 16.2885L20.5544 16.3237C20.2308 16.3676 19.9014 16.3378 19.5909 16.2363C19.2805 16.1348 18.997 15.9645 18.7617 15.7379C18.4684 15.4321 18.2657 15.0509 18.1759 14.6367L18.1407 14.4297L17.9359 14.498C17.7353 14.5638 17.5259 14.5987 17.3148 14.6015C16.8532 14.5971 16.4056 14.4425 16.0396 14.161L15.7291 13.9188V14.3328C15.717 15.0582 15.5542 15.773 15.2509 16.432C14.9475 17.091 14.5104 17.6796 13.9672 18.1605C13.8641 18.2467 13.7323 18.2909 13.5981 18.2844C13.4638 18.2778 13.337 18.221 13.2427 18.1253L13.2096 18.09C13.1263 17.9773 13.0872 17.8379 13.0998 17.6982C13.1124 17.5586 13.1758 17.4284 13.2779 17.3324C13.9114 16.7659 14.3564 16.0192 14.5533 15.1925C14.7501 14.3658 14.6893 13.4987 14.3791 12.7075L14.2756 12.4674L13.4189 13.0114C13.3623 13.0548 13.2978 13.0866 13.2289 13.1051C13.1601 13.1235 13.0883 13.1282 13.0176 13.1189C12.947 13.1096 12.8789 13.0865 12.8171 13.0508C12.7554 13.0152 12.7013 12.9678 12.658 12.9112C12.6146 12.8547 12.5827 12.7901 12.5643 12.7213C12.5459 12.6525 12.5412 12.5807 12.5505 12.51C12.5598 12.4393 12.5829 12.3712 12.6185 12.3095C12.6542 12.2478 12.7016 12.1937 12.7582 12.1503L14.1038 11.1504C14.2109 11.0684 14.3451 11.0298 14.4795 11.0425C14.6138 11.0551 14.7384 11.1181 14.8284 11.2187L16.5902 13.1502C16.7881 13.3593 17.0601 13.4827 17.3478 13.4937C17.4887 13.4945 17.6283 13.4675 17.7587 13.4142C17.8891 13.3609 18.0077 13.2824 18.1076 13.1832C18.206 13.0865 18.2841 12.9711 18.3374 12.8439C18.3907 12.7166 18.4182 12.5801 18.4182 12.4421C18.4182 12.3042 18.3907 12.1676 18.3374 12.0403C18.2841 11.9131 18.206 11.7978 18.1076 11.701L15.4869 8.97673C15.1457 8.62457 14.6876 8.40935 14.1987 8.37162C13.7099 8.33389 13.2242 8.47627 12.833 8.77191L10.3136 10.7034C9.78691 11.1021 9.35365 11.611 9.04401 12.1945C8.73438 12.778 8.55584 13.4221 8.52085 14.0818L8.24336 18.5657C8.24005 18.6318 8.22307 18.6964 8.1935 18.7555C8.16394 18.8147 8.12242 18.867 8.07158 18.9093L6.45065 20.5302C6.33503 20.6508 6.27048 20.8113 6.27048 20.9784C6.27048 21.1454 6.33503 21.306 6.45065 21.4266L10.6571 25.633C10.7772 25.7497 10.9379 25.8149 11.1053 25.8149C11.2727 25.8149 11.4334 25.7497 11.5535 25.633L13.2779 23.9086C13.3399 23.8465 13.4168 23.8013 13.5013 23.7774C13.5857 23.7535 13.6749 23.7517 13.7602 23.772L14.5531 23.9438C15.2349 24.1032 15.9458 24.0889 16.6207 23.9023C17.2956 23.7157 17.9129 23.3627 18.416 22.8757L18.7265 22.5652C20.0061 21.2913 21.1842 19.9195 22.2502 18.4622L22.389 18.2552L22.1467 18.1517C21.8656 18.0372 21.6069 17.8739 21.3825 17.6694Z" fill="#040000"/>
<path d="M19.5634 14.9451C19.7657 15.1443 20.0382 15.2559 20.3221 15.2559C20.606 15.2559 20.8785 15.1443 21.0808 14.9451L23.5034 12.5225C23.7046 12.3213 23.8177 12.0484 23.8177 11.7638C23.8177 11.4792 23.7046 11.2063 23.5034 11.0051C23.3022 10.8039 23.0293 10.6908 22.7447 10.6908C22.4601 10.6908 22.1872 10.8039 21.986 11.0051L19.5634 13.4277C19.3642 13.63 19.2526 13.9025 19.2526 14.1864C19.2526 14.4703 19.3642 14.7428 19.5634 14.9451Z" fill="#040000"/>
<path d="M18.9357 10.9456C19.1331 11.1525 19.2834 11.3997 19.3762 11.6702L19.4797 11.9785L21.5829 9.87528C21.6866 9.7766 21.7695 9.65815 21.8267 9.52693C21.8839 9.39572 21.9142 9.25438 21.9159 9.11125C21.9176 8.96812 21.8907 8.8261 21.8367 8.69355C21.7826 8.561 21.7026 8.44061 21.6013 8.33947C21.5 8.23833 21.3795 8.15849 21.2469 8.10464C21.1143 8.0508 20.9722 8.02406 20.8291 8.02598C20.686 8.0279 20.5447 8.05845 20.4135 8.11583C20.2824 8.1732 20.1641 8.25625 20.0655 8.36008L18.2046 10.2211L18.9357 10.9456Z" fill="#040000"/>
<path d="M23.8998 13.6347L22.1379 15.3966C22.0383 15.4962 21.9593 15.6145 21.9053 15.7447C21.8514 15.8748 21.8237 16.0144 21.8237 16.1553C21.8237 16.2962 21.8514 16.4357 21.9053 16.5659C21.9593 16.6961 22.0383 16.8143 22.1379 16.914C22.2376 17.0136 22.3559 17.0926 22.486 17.1466C22.6162 17.2005 22.7557 17.2282 22.8966 17.2282C23.0375 17.2282 23.1771 17.2005 23.3073 17.1466C23.4374 17.0926 23.5557 17.0136 23.6553 16.914L25.4172 15.1521C25.6164 14.9498 25.7281 14.6773 25.7281 14.3934C25.7281 14.1095 25.6164 13.837 25.4172 13.6347C25.3214 13.5285 25.2044 13.4436 25.0737 13.3855C24.943 13.3274 24.8015 13.2974 24.6585 13.2974C24.5155 13.2974 24.3741 13.3274 24.2434 13.3855C24.1127 13.4436 23.9956 13.5285 23.8998 13.6347Z" fill="#040000"/>
</svg>
