<svg width="32" height="32" viewBox="0 0 32 32" fill="none" xmlns="http://www.w3.org/2000/svg">
<circle cx="16" cy="16" r="16" fill="#B56BFF"/>
<g clip-path="url(#clip0_392_894)">
<path d="M24.7455 10.7818L19.7818 9C18.3235 9 17.0471 9.71273 16.3427 10.7818H15.4705C14.83 9.71273 13.6671 9 12.3364 9L6.46509 11.2629C4.43 12.1895 3 14.3607 3 16.8909C3 20.2636 5.54091 23 8.67273 23C10.3225 23 11.8069 22.2415 12.8445 21.0298L13.5796 19.9505L15.9149 16.5269L18.782 20.5462C19.8173 22.0353 21.4671 23 23.3273 23C26.4591 23 29 20.2636 29 16.8909C29 14.0349 27.206 11.4513 24.7455 10.7818ZM8.2 20.9636C6.11055 20.9636 4.41818 19.1411 4.41818 16.8909C4.41818 14.6407 6.11055 12.8182 8.2 12.8182C10.2895 12.8182 11.9818 14.6407 11.9818 16.8909C11.9818 19.1411 10.2895 20.9636 8.2 20.9636ZM15.8818 13.5818C15.1633 13.5818 14.5818 13.1262 14.5818 12.5636C14.5818 12.0011 15.1633 11.5455 15.8818 11.5455C16.6004 11.5455 17.1818 12.0011 17.1818 12.5636C17.1818 13.1262 16.6004 13.5818 15.8818 13.5818ZM23.5636 20.9636C21.4742 20.9636 19.7818 19.1411 19.7818 16.8909C19.7818 14.6407 21.4742 12.8182 23.5636 12.8182C25.6531 12.8182 27.3455 14.6407 27.3455 16.8909C27.3455 19.1411 25.6531 20.9636 23.5636 20.9636Z" fill="black"/>
<path d="M8.20002 18.1636C9.31092 18.1636 10.3698 17.6036 10.8118 16.8247C10.8827 16.7 11.0647 16.7407 11.0718 16.8858C11.0955 17.2778 11.0435 17.6927 10.878 18.1229L10.6464 18.604C10.1547 19.4924 9.24947 20.0855 8.2142 20.0702C7.09383 20.0524 6.10347 19.2607 5.67802 18.1458C5.51256 17.7131 5.46293 17.3007 5.4842 16.9087C5.49365 16.7611 5.67329 16.7204 5.7442 16.8476C6.18856 17.6266 7.14347 18.1636 8.25674 18.1636" fill="black"/>
<path d="M23.5637 18.1636C24.6746 18.1636 25.7335 17.6036 26.1755 16.8247C26.2464 16.7 26.4284 16.7407 26.4355 16.8858C26.4591 17.2778 26.4071 17.6927 26.2417 18.1229L26.01 18.604C25.5184 19.4924 24.6131 20.0855 23.5778 20.0702C22.4575 20.0524 21.4671 19.2607 21.0417 18.1458C20.8762 17.7131 20.8266 17.3007 20.8478 16.9087C20.8573 16.7611 21.0369 16.7204 21.1078 16.8476C21.5522 17.6266 22.5071 18.1636 23.6204 18.1636" fill="black"/>
</g>
<defs>
<clipPath id="clip0_392_894">
<rect width="26" height="14" fill="white" transform="translate(3 9)"/>
</clipPath>
</defs>
</svg>
