<svg width="26" height="26" viewBox="0 0 26 26" fill="none" xmlns="http://www.w3.org/2000/svg">
<path fill-rule="evenodd" clip-rule="evenodd" d="M20.5028 9.85568C20.8072 10.5885 21.54 11.3871 22.2414 11.9935C22.9421 12.5686 23.8264 12.9514 24.0704 13.0157C24.2838 13.0779 25.1068 13.3034 25.1987 13.3034C25.3202 13.3034 25.4427 13.4315 25.5338 13.4315C25.6256 13.4315 25.8398 13.3034 25.9003 13.0157C25.9606 12.7612 26.1443 11.9313 25.7786 11.8671C25.3815 11.803 25.3519 11.9935 25.3519 11.9935C25.3519 11.9935 24.8638 11.834 24.772 11.739C24.6799 11.6435 23.8876 11.228 23.6742 10.9717C23.43 10.7169 22.9115 10.142 22.6682 9.69478C22.3936 9.15273 22.1192 8.28984 21.9669 7.9713C21.8137 7.61952 21.4177 6.91792 21.1429 6.6616C20.8998 6.4381 20.2894 5.86474 20.2587 5.83194C20.228 5.80072 20.228 5.48016 20.2894 5.44916C20.3506 5.41636 20.9601 5.09582 21.0818 4.77886C21.2043 4.49112 21.3871 4.33184 21.3871 3.788C21.3871 3.21436 20.8684 2 19.6491 2C18.4299 2 18.0023 2.95784 18.0023 3.66124C18.0023 4.65038 18.6119 4.8739 18.4598 5.1302C18.3375 5.25667 18.033 5.25667 17.6368 5.28968C17.2703 5.32091 16.3869 5.70376 15.9286 6.15056C15.5019 6.59758 14.648 7.58852 14.4049 8.13056C14.1301 8.67462 13.6423 9.66376 13.4586 10.3984C13.2767 11.0998 13.1838 11.547 13.1838 11.8033C13.1838 12.0909 13.1235 12.3784 13.1235 12.3784C13.1235 12.3784 12.7884 12.6329 12.7884 12.8564C12.7884 13.0782 13.1539 13.4627 13.3674 13.5597C13.5808 13.686 14.0078 13.8473 14.1301 13.8473C14.2517 13.8473 14.7091 13.655 14.7091 13.3365C14.7091 13.0159 14.5254 12.5691 14.5254 12.2814C14.5254 12.0268 14.8002 10.9097 14.9533 10.6531C15.0747 10.4296 15.5934 9.56876 15.7151 9.44048C15.8374 9.31222 16.0509 9.15294 16.0509 9.15294C16.0509 10.1108 15.9286 12.3783 15.7466 13.016C15.563 13.655 14.6787 15.4759 14.3122 16.1134C13.8855 16.8477 12.9408 18.3808 12.4221 18.9869C11.9036 19.5932 11.1724 20.2638 11.0804 20.3607C10.9589 20.4249 10.9886 20.5842 11.0804 20.7434C11.1417 20.9029 12.0557 22.819 12.117 22.819C12.1483 22.819 13.5503 23.1065 13.6117 23.1065C13.7035 23.1065 13.7638 22.8502 13.6117 22.786C13.4586 22.6907 13.3064 22.6597 13.3064 22.6597C13.1839 22.0846 13.0318 21.5094 12.8797 20.9032C12.8797 20.9032 14.0386 19.7858 14.2826 19.4983C14.496 19.2105 15.7468 17.9341 15.9899 17.5511C16.2033 17.1993 16.9957 16.0491 17.0885 15.7616C17.2102 15.4758 17.7287 14.5802 17.7287 14.5802C17.7287 14.5802 18.2465 15.0912 18.4599 15.3787C18.6435 15.6663 19.4974 17.2634 19.6793 17.6462C19.8936 17.998 20.6256 19.7857 20.7166 20.1995C20.8388 20.5839 22.058 24 22.058 24C22.058 24 24.8936 22.6903 25.0161 22.6263C25.1384 22.5308 25.2908 22.212 25.0161 22.212C24.7413 22.212 23.0035 21.9885 23.0035 21.9885C23.0035 21.9885 22.9117 20.9663 22.8504 20.679C22.8205 20.3913 22.3938 18.3802 22.2416 17.9974C22.0885 17.6456 21.3565 15.8579 21.2044 15.6656C21.0216 15.4421 20.5029 13.9093 20.3804 13.5593C20.2589 13.1747 20.0762 12.2166 20.0762 11.8028C20.0761 11.387 20.2589 10.3339 20.5028 9.85557" fill="black"/>
<path d="M6 8L7.11246 10.5762L9.52671 9.1459L8.91246 11.884L11.7063 12.1459L9.6 14L11.7063 15.8541L8.91246 16.116L9.52671 18.8541L7.11246 17.4238L6 20L4.88754 17.4238L2.47329 18.8541L3.08754 16.116L0.293661 15.8541L2.4 14L0.293661 12.1459L3.08754 11.884L2.47329 9.1459L4.88754 10.5762L6 8Z" fill="black"/>
</svg>
