<svg width="16" height="16" viewBox="0 0 16 16" fill="none" xmlns="http://www.w3.org/2000/svg">
<path fill-rule="evenodd" clip-rule="evenodd" d="M2.53848 4.13805C3.13857 3.53815 3.95235 3.20114 4.80088 3.20114C5.6494 3.20114 6.46319 3.53815 7.06328 4.13805L8.00088 5.07485L8.93848 4.13805C9.23367 3.83242 9.58677 3.58864 9.97718 3.42093C10.3676 3.25322 10.7875 3.16495 11.2124 3.16125C11.6373 3.15756 12.0587 3.23853 12.4519 3.39943C12.8452 3.56032 13.2025 3.79793 13.5029 4.09839C13.8034 4.39885 14.041 4.75613 14.2019 5.1494C14.3628 5.54267 14.4438 5.96404 14.4401 6.38894C14.4364 6.81383 14.3481 7.23374 14.1804 7.62415C14.0127 8.01456 13.7689 8.36766 13.4633 8.66285L8.00088 14.1261L2.53848 8.66285C1.93857 8.06277 1.60156 7.24898 1.60156 6.40045C1.60156 5.55193 1.93857 4.73814 2.53848 4.13805V4.13805Z" stroke="#00FFC2" stroke-width="2" stroke-linejoin="round"/>
</svg>
