<svg width="16" height="16" viewBox="0 0 16 16" fill="none" xmlns="http://www.w3.org/2000/svg">
<path d="M2.66797 4.11765L13.3346 4.11765M10.668 14H5.33464C4.59826 14 4.0013 13.3679 4.0013 12.5882V4.82353C4.0013 4.43368 4.29978 4.11765 4.66797 4.11765H11.3346C11.7028 4.11765 12.0013 4.43368 12.0013 4.82353V12.5882C12.0013 13.3679 11.4043 14 10.668 14ZM6.66797 4.11765H9.33464C9.70282 4.11765 10.0013 3.80161 10.0013 3.41176V2.70588C10.0013 2.31603 9.70282 2 9.33464 2H6.66797C6.29978 2 6.0013 2.31603 6.0013 2.70588V3.41176C6.0013 3.80161 6.29978 4.11765 6.66797 4.11765Z" stroke="#00FFC2" stroke-width="2" stroke-linecap="round"/>
</svg>
