<svg width="14" height="14" viewBox="0 0 14 14" fill="none" xmlns="http://www.w3.org/2000/svg">
<path d="M11.934 2.59781C11.649 2.29807 11.3105 2.06029 10.938 1.89807C10.5655 1.73584 10.1662 1.65234 9.76292 1.65234C9.35968 1.65234 8.96039 1.73584 8.58786 1.89807C8.21533 2.06029 7.87686 2.29807 7.59179 2.59781L7.00018 3.21959L6.40856 2.59781C5.83274 1.99264 5.05176 1.65266 4.23743 1.65266C3.4231 1.65266 2.64212 1.99264 2.0663 2.59781C1.49048 3.20298 1.16699 4.02377 1.16699 4.87961C1.16699 5.73545 1.49048 6.55624 2.0663 7.16141L6.2885 11.5988C6.6757 12.0058 7.32465 12.0058 7.71185 11.5988L11.934 7.16141C12.2193 6.86181 12.4455 6.50609 12.5999 6.11457C12.7542 5.72305 12.8337 5.30341 12.8337 4.87961C12.8337 4.45581 12.7542 4.03617 12.5999 3.64465C12.4455 3.25313 12.2193 2.89741 11.934 2.59781Z" fill="#00FFC2" stroke="#00FFC2" stroke-linecap="round"/>
</svg>
