<svg width="14" height="14" viewBox="0 0 14 14" fill="none" xmlns="http://www.w3.org/2000/svg">
<path d="M4.51429 13H9.48571L13 9.48571V4.51429L9.48571 1H4.51429L1 4.51429V9.48571L4.51429 13Z" stroke="#00FFC2" stroke-width="0.945813"/>
<path d="M7.6772 10.2269C7.49522 10.4089 7.26955 10.4999 7.00019 10.4999C6.73185 10.4978 6.5067 10.4068 6.32472 10.2269C6.14275 10.047 6.05176 9.82185 6.05176 9.55146C6.05176 9.28106 6.14275 9.0554 6.32472 8.87445C6.5067 8.6935 6.73185 8.60251 7.00019 8.60149C7.26853 8.60046 7.49368 8.69144 7.67566 8.87445C7.85763 9.05745 7.94862 9.28312 7.94862 9.55146C7.94862 9.8198 7.85815 10.045 7.6772 10.2269Z" fill="#00FFC2"/>
<path d="M7.77127 7.35541H6.22911V3.5H7.77127V7.35541Z" fill="#00FFC2"/>
</svg>
