<svg width="14" height="14" viewBox="0 0 14 14" fill="none" xmlns="http://www.w3.org/2000/svg">
<path d="M13.4727 4.31836V9.68164L9.68164 13.4727H4.31836L0.527344 9.68164V4.31836L4.31836 0.527344H9.68164L13.4727 4.31836ZM7 8.60156C6.7317 8.60259 6.50618 8.69313 6.32422 8.87402C6.14224 9.05497 6.05176 9.28136 6.05176 9.55176C6.05183 9.82186 6.14252 10.0468 6.32422 10.2266C6.50619 10.4065 6.73166 10.4979 7 10.5C7.26934 10.5 7.49479 10.4085 7.67676 10.2266C7.85758 10.0447 7.94817 9.81992 7.94824 9.55176C7.94824 9.28342 7.85776 9.05703 7.67578 8.87402C7.49382 8.69105 7.2683 8.60055 7 8.60156ZM6.22852 3.5V7.35547H7.77148V3.5H6.22852Z" fill="#00FFC2"/>
</svg>
