<svg width="110" height="57" viewBox="0 0 110 57" fill="none" xmlns="http://www.w3.org/2000/svg">
<path d="M14.9814 10.5C22.3548 10.5001 28.3499 15.2917 29.2236 21.3613L29.2246 21.3652C29.303 21.878 29.342 22.3964 29.3408 22.915V22.917L29.3848 40.8086C29.3842 43.2145 27.1135 45.2832 24.1602 45.2832H24.1562C23.0845 45.2909 22.0318 44.9996 21.1172 44.4414L20.8154 44.2568L20.541 44.4805C18.9481 45.7771 16.9589 46.4898 14.9043 46.5C12.8495 46.5101 10.8528 45.8163 9.24707 44.5352L8.97949 44.3223L8.68457 44.4941C7.7867 45.0156 6.76508 45.2878 5.72656 45.2832H5.72461C2.77088 45.2832 0.5 43.2139 0.5 40.8076V22.916C0.500034 16.1282 6.97948 10.5 14.9814 10.5Z" stroke="white"/>
<path d="M54.8661 8.5C62.2395 8.50007 68.2346 13.2917 69.1083 19.3613L69.1093 19.3652C69.1876 19.878 69.2266 20.3964 69.2255 20.915V20.917L69.2694 38.8086C69.2689 41.2145 66.9981 43.2832 64.0448 43.2832H64.0409C62.9692 43.2909 61.9165 42.9996 61.0018 42.4414L60.7001 42.2568L60.4257 42.4805C58.8327 43.7771 56.8435 44.4898 54.7889 44.5C52.7341 44.5101 50.7374 43.8163 49.1317 42.5352L48.8641 42.3223L48.5692 42.4941C47.6713 43.0156 46.6497 43.2878 45.6112 43.2832H45.6093C42.6555 43.2832 40.3846 41.2139 40.3846 38.8076V20.916C40.3847 14.1282 46.8641 8.5 54.8661 8.5Z" stroke="white"/>
<path d="M57.8846 32C57.8846 30.3431 56.5415 29 54.8846 29C53.2278 29 51.8846 30.3431 51.8846 32" stroke="white" stroke-width="1.4" stroke-linecap="round"/>
<path d="M48.3846 24.5C49.4892 24.5 50.3846 23.6046 50.3846 22.5C50.3846 21.3954 49.4892 20.5 48.3846 20.5C47.2801 20.5 46.3846 21.3954 46.3846 22.5C46.3846 23.6046 47.2801 24.5 48.3846 24.5Z" fill="white"/>
<path d="M61.3846 24.5C62.4892 24.5 63.3846 23.6046 63.3846 22.5C63.3846 21.3954 62.4892 20.5 61.3846 20.5C60.2801 20.5 59.3846 21.3954 59.3846 22.5C59.3846 23.6046 60.2801 24.5 61.3846 24.5Z" fill="white"/>
<path d="M94.7507 10.5C102.124 10.5001 108.119 15.2917 108.993 21.3613L108.994 21.3652C109.072 21.878 109.111 22.3964 109.11 22.915V22.917L109.154 40.8086C109.154 43.2145 106.883 45.2832 103.929 45.2832H103.926C102.854 45.2909 101.801 44.9996 100.886 44.4414L100.585 44.2568L100.31 44.4805C98.7174 45.7771 96.7282 46.4898 94.6736 46.5C92.6187 46.5101 90.6221 45.8163 89.0164 44.5352L88.7488 44.3223L88.4539 44.4941C87.556 45.0156 86.5344 45.2878 85.4958 45.2832H85.4939C82.5402 45.2832 80.2693 43.2139 80.2693 40.8076V22.916C80.2693 16.1282 86.7488 10.5 94.7507 10.5Z" stroke="white"/>
</svg>
