<svg width="14" height="14" viewBox="0 0 14 14" fill="none" xmlns="http://www.w3.org/2000/svg">
<path d="M9.97754 6.81055L4.52051 12.2686C4.37216 12.4169 4.17071 12.4999 3.96094 12.5H2.29102C2.08126 12.4999 1.87977 12.4169 1.73145 12.2686C1.58312 12.1202 1.50008 11.9187 1.5 11.709V10.0391L1.50391 9.96094C1.52191 9.77985 1.60165 9.60931 1.73145 9.47949L7.18848 4.02148L9.97754 6.81055ZM10.0391 1.5C10.2488 1.5 10.4503 1.5832 10.5986 1.73145L12.2686 3.40137C12.4168 3.54975 12.5 3.75119 12.5 3.96094C12.4999 4.17069 12.4169 4.37216 12.2686 4.52051L11.5977 5.19043L8.80859 2.40137L9.47949 1.73145C9.62784 1.58314 9.82931 1.50005 10.0391 1.5Z" stroke="#00FFC2"/>
</svg>
