<svg width="120" height="12" viewBox="0 0 120 12" fill="none" xmlns="http://www.w3.org/2000/svg">
<path d="M0 5.06641C8.56503 5.06641 8.56498 6.34572 17.1364 6.34572C25.7078 6.34572 25.7079 5.06641 34.2793 5.06641C42.8507 5.06641 42.8508 6.34572 51.4222 6.34572C59.9936 6.34572 59.9936 5.06641 68.565 5.06641C77.1364 5.06641 77.1364 6.34572 85.7079 6.34572C94.2793 6.34572 94.2793 5.06641 102.857 5.06641C111.435 5.06641 111.429 6.34572 120 6.34572" stroke="#4F66E5" stroke-width="4.47761" stroke-miterlimit="10"/>
<path d="M42.8643 10.8226C39.6148 10.8226 31.6702 6.60089 31.3504 6.42179L30.8643 6.16591L31.3312 5.87169C31.6702 5.6606 39.6467 0.69043 42.8834 0.69043C46.1201 0.69043 54.9282 5.27681 55.3056 5.4751L55.8429 5.75656L55.3056 6.03801C54.909 6.20432 46.1201 10.8226 42.8643 10.8226Z" fill="#E4DACC"/>
<path d="M42.8634 0.978897C46.0617 0.978897 55.132 5.72519 55.132 5.72519C55.132 5.72519 46.0745 10.4715 42.8634 10.4715C39.6523 10.4715 31.4839 6.10897 31.4839 6.10897C31.4839 6.10897 39.6523 0.991702 42.8634 0.991702M42.8634 0.352043C39.5116 0.352043 31.4838 5.36696 31.1448 5.57804L30.2109 6.16652L31.1832 6.68468C31.5223 6.87018 39.4988 11.1239 42.8634 11.1239C46.228 11.1239 55.0553 6.49916 55.4327 6.30727L56.5137 5.70598L55.4327 5.14308C55.0553 4.94479 46.196 0.320068 42.8634 0.320068V0.352043Z" fill="#281F24"/>
<path d="M43.0621 10.606C45.7682 10.606 47.9619 8.41226 47.9619 5.70618C47.9619 3.00011 45.7682 0.806396 43.0621 0.806396C40.3561 0.806396 38.1624 3.00011 38.1624 5.70618C38.1624 8.41226 40.3561 10.606 43.0621 10.606Z" fill="#281F24"/>
<path d="M76.2471 10.8226C72.9912 10.8226 65.0467 6.60089 64.7332 6.42179L64.2471 6.16591L64.714 5.87169C65.0466 5.6606 73.0296 0.69043 76.2663 0.69043C79.503 0.69043 88.3111 5.27681 88.6821 5.4751L89.2194 5.75656L88.6821 6.03801C88.2919 6.20432 79.4965 10.8226 76.2471 10.8226Z" fill="#E4DACC"/>
<path d="M76.2467 0.978416C79.445 0.978416 88.5154 5.72471 88.5154 5.72471C88.5154 5.72471 79.4578 10.471 76.2467 10.471C73.0356 10.471 64.8608 6.10849 64.8608 6.10849C64.8608 6.10849 73.0356 0.991221 76.2467 0.991221M76.2467 0.351562C72.8885 0.351562 64.8608 5.36648 64.5218 5.57756L63.5879 6.16604L64.5601 6.6842C64.8991 6.8697 72.9141 11.1234 76.2467 11.1234C79.5793 11.1234 88.4322 6.49868 88.8096 6.30678L89.8907 5.73748L88.8096 5.17458C88.4322 4.97628 79.5729 0.351562 76.2467 0.351562Z" fill="#281F24"/>
<path d="M76.4389 10.6062C79.1449 10.6062 81.3386 8.4125 81.3386 5.70643C81.3386 3.00035 79.1449 0.806641 76.4389 0.806641C73.7328 0.806641 71.5391 3.00035 71.5391 5.70643C71.5391 8.4125 73.7328 10.6062 76.4389 10.6062Z" fill="#281F24"/>
</svg>
