<svg width="74" height="91" viewBox="0 0 74 91" fill="none" xmlns="http://www.w3.org/2000/svg">
<path d="M73.4414 75.1857C73.4414 81.8894 67.1918 87.3392 59.4776 87.3392C56.6362 87.3567 53.8467 86.579 51.4243 85.0941C47.3247 88.4378 42.2031 90.2755 36.9129 90.3011C31.6227 90.3267 26.4836 88.5386 22.3518 85.2348C19.9746 86.6218 17.2682 87.3443 14.516 87.3265C6.84009 87.3265 0.558594 81.8894 0.558594 75.173V31.5226C0.558594 14.1175 17.0874 0.000244141 37.0959 0.000244141C55.5565 0.000244141 70.7996 12.0258 73.032 27.5504C73.235 28.8647 73.3355 30.1928 73.3326 31.5226L73.4414 75.1857Z" fill="url(#paint0_linear_721_19876)"/>
<defs>
<linearGradient id="paint0_linear_721_19876" x1="3.81446" y1="16.5994" x2="70.1919" y2="82.9768" gradientUnits="userSpaceOnUse">
<stop stop-color="#E4DACC"/>
<stop offset="0.49" stop-color="#F1CFC8"/>
<stop offset="1" stop-color="#4F66E5"/>
</linearGradient>
</defs>
</svg>
