<svg width="120" height="12" viewBox="0 0 120 12" fill="none" xmlns="http://www.w3.org/2000/svg">
<path d="M0 4.06641C8.56503 4.06641 8.56498 5.34572 17.1364 5.34572C25.7078 5.34572 25.7079 4.06641 34.2793 4.06641C42.8507 4.06641 42.8508 5.34572 51.4222 5.34572C59.9936 5.34572 59.9936 4.06641 68.565 4.06641C77.1364 4.06641 77.1365 5.34572 85.7079 5.34572C94.2793 5.34572 94.2793 4.06641 102.857 4.06641C111.435 4.06641 111.429 5.34572 120 5.34572" stroke="#4F66E5" stroke-width="4.47761" stroke-miterlimit="10"/>
<path d="M55.1325 1C55.1325 1 46.075 5.74626 42.8639 5.74626C39.6528 5.74626 31.4844 1.38378 31.4844 1.38378" stroke="black" stroke-width="1.4" stroke-linecap="round"/>
<path d="M34.5 3L31.5 6" stroke="black" stroke-width="1.4" stroke-linecap="round"/>
<path d="M51 3L54 6" stroke="black" stroke-width="1.4" stroke-linecap="round"/>
<path d="M37.8849 5.00008L35.8232 8.7081" stroke="black" stroke-width="1.4" stroke-linecap="round"/>
<path d="M43.1874 6.00004L43.1873 10.4999" stroke="black" stroke-width="1.4" stroke-linecap="round"/>
<path d="M47.8232 5.00008L49.8848 8.7081" stroke="black" stroke-width="1.4" stroke-linecap="round"/>
<path d="M88.6482 1C88.6482 1 79.5906 5.74626 76.3796 5.74626C73.1685 5.74626 65 1.38378 65 1.38378" stroke="black" stroke-width="1.4" stroke-linecap="round"/>
<path d="M68.0156 3L65.0156 6" stroke="black" stroke-width="1.4" stroke-linecap="round"/>
<path d="M84.5156 3L87.5156 6" stroke="black" stroke-width="1.4" stroke-linecap="round"/>
<path d="M71.4005 5.00008L69.3388 8.7081" stroke="black" stroke-width="1.4" stroke-linecap="round"/>
<path d="M76.7031 6.00004L76.7029 10.4999" stroke="black" stroke-width="1.4" stroke-linecap="round"/>
<path d="M81.3388 5.00008L83.4005 8.7081" stroke="black" stroke-width="1.4" stroke-linecap="round"/>
</svg>
