<svg width="32" height="32" viewBox="0 0 32 32" fill="none" xmlns="http://www.w3.org/2000/svg">
<path d="M16 5.6875C15.7121 5.6875 15.5359 5.56719 15.334 5.42539C15.0504 5.23203 14.7109 5 13.9375 5C12.627 5 11.7031 6.87773 11.1016 8.84141C9.06914 9.21523 7.75 9.82109 7.75 10.5C7.75 11.1145 8.82422 11.6645 10.5258 12.0426C10.5086 12.2145 10.5 12.3863 10.5 12.5625C10.5 13.293 10.6418 13.9891 10.8996 14.625H8.32578C8.00781 14.625 7.75 14.8828 7.75 15.2008C7.75 15.2738 7.76289 15.3469 7.79297 15.4156L9.46016 19.5793C7.58672 20.9758 6.375 23.2102 6.375 25.7238C6.375 26.4285 6.94648 27 7.65117 27H24.3488C25.0535 27 25.625 26.4285 25.625 25.7238C25.625 23.2102 24.4133 20.9801 22.5441 19.5793L24.207 15.4156C24.2328 15.3469 24.25 15.2738 24.25 15.2008C24.25 14.8828 23.9922 14.625 23.6742 14.625H21.1004C21.3582 13.9891 21.5 13.293 21.5 12.5625C21.5 12.3863 21.4914 12.2145 21.4742 12.0426C23.1758 11.6645 24.25 11.1145 24.25 10.5C24.25 9.82109 22.9309 9.21523 20.8984 8.84141C20.2969 6.87773 19.373 5 18.0625 5C17.2891 5 16.9496 5.23203 16.666 5.42539C16.4598 5.56719 16.2879 5.6875 16 5.6875ZM18.4062 14.625H17.8734C17.1645 14.625 16.5371 14.1695 16.3137 13.4992C16.2148 13.1984 15.7895 13.1984 15.6906 13.4992C15.4672 14.1695 14.8355 14.625 14.1309 14.625H13.5938C12.6441 14.625 11.875 13.8559 11.875 12.9062V12.2875C13.0867 12.4637 14.4961 12.5625 16 12.5625C17.5039 12.5625 18.9133 12.4637 20.125 12.2875V12.9062C20.125 13.8559 19.3559 14.625 18.4062 14.625ZM14.625 18.75L15.3125 20.125L13.9375 25.625L11.875 17.375L14.625 18.75ZM20.125 17.375L18.0625 25.625L16.6875 20.125L17.375 18.75L20.125 17.375Z" fill="black"/>
</svg>
