<svg width="18" height="18" viewBox="0 0 18 18" fill="none" xmlns="http://www.w3.org/2000/svg">
<path d="M11.8418 4.5C12.1872 4.50004 12.53 4.57133 12.8506 4.71094C13.1713 4.85061 13.4639 5.05665 13.7119 5.31738H13.7129C13.9609 5.57794 14.1584 5.8888 14.2939 6.23242C14.4295 6.57627 14.5 6.9458 14.5 7.31934C14.5 7.69292 14.4295 8.06236 14.2939 8.40625C14.1584 8.7499 13.9609 9.0607 13.7129 9.32129V9.32227L9.3623 13.8936C9.16523 14.1007 8.83477 14.1007 8.6377 13.8936L4.28711 9.32227C3.78567 8.79526 3.5 8.07482 3.5 7.31934C3.50003 6.56399 3.78581 5.84434 4.28711 5.31738C4.78775 4.79122 5.46146 4.5 6.1582 4.5C6.85493 4.50001 7.52867 4.79123 8.0293 5.31738L8.6377 5.95703L9 6.33691L9.3623 5.95703L9.9707 5.31738C10.2187 5.05662 10.5123 4.85062 10.833 4.71094C11.1536 4.57143 11.4964 4.5 11.8418 4.5Z" stroke="#00FFC2" stroke-linecap="round"/>
</svg>
