<svg width="26" height="14" viewBox="0 0 26 14" fill="none" xmlns="http://www.w3.org/2000/svg">
<g clip-path="url(#clip0_91_822)">
<path d="M21.7455 1.78182L16.7818 0C15.3235 0 14.0471 0.712727 13.3427 1.78182H12.4705C11.83 0.712727 10.6671 0 9.33636 0L3.46509 2.26291C1.43 3.18945 0 5.36073 0 7.89091C0 11.2636 2.54091 14 5.67273 14C7.32255 14 8.80691 13.2415 9.84455 12.0298L10.5796 10.9505L12.9149 7.52691L15.782 11.5462C16.8173 13.0353 18.4671 14 20.3273 14C23.4591 14 26 11.2636 26 7.89091C26 5.03491 24.206 2.45127 21.7455 1.78182ZM5.2 11.9636C3.11055 11.9636 1.41818 10.1411 1.41818 7.89091C1.41818 5.64073 3.11055 3.81818 5.2 3.81818C7.28945 3.81818 8.98182 5.64073 8.98182 7.89091C8.98182 10.1411 7.28945 11.9636 5.2 11.9636ZM12.8818 4.58182C12.1633 4.58182 11.5818 4.12618 11.5818 3.56364C11.5818 3.00109 12.1633 2.54545 12.8818 2.54545C13.6004 2.54545 14.1818 3.00109 14.1818 3.56364C14.1818 4.12618 13.6004 4.58182 12.8818 4.58182ZM20.5636 11.9636C18.4742 11.9636 16.7818 10.1411 16.7818 7.89091C16.7818 5.64073 18.4742 3.81818 20.5636 3.81818C22.6531 3.81818 24.3455 5.64073 24.3455 7.89091C24.3455 10.1411 22.6531 11.9636 20.5636 11.9636Z" fill="black"/>
<path d="M5.19995 9.16359C6.31086 9.16359 7.36977 8.60359 7.81177 7.82468C7.88268 7.69995 8.06468 7.74068 8.07177 7.88577C8.09541 8.27777 8.04341 8.69268 7.87796 9.12286L7.64632 9.60395C7.15468 10.4923 6.24941 11.0854 5.21414 11.0701C4.09377 11.0523 3.10341 10.2607 2.67795 9.14577C2.5125 8.71304 2.46286 8.30068 2.48414 7.90868C2.49359 7.76104 2.67323 7.72031 2.74414 7.84759C3.1885 8.6265 4.14341 9.16359 5.25668 9.16359" fill="black"/>
<path d="M20.5632 9.16359C21.6741 9.16359 22.7331 8.60359 23.1751 7.82468C23.246 7.69995 23.428 7.74068 23.4351 7.88577C23.4587 8.27777 23.4067 8.69268 23.2412 9.12286L23.0096 9.60395C22.518 10.4923 21.6127 11.0854 20.5774 11.0701C19.4571 11.0523 18.4667 10.2607 18.0412 9.14577C17.8758 8.71304 17.8261 8.30068 17.8474 7.90868C17.8569 7.76104 18.0365 7.72031 18.1074 7.84759C18.5518 8.6265 19.5067 9.16359 20.62 9.16359" fill="black"/>
</g>
<defs>
<clipPath id="clip0_91_822">
<rect width="26" height="14" fill="white"/>
</clipPath>
</defs>
</svg>
