<svg width="32" height="32" viewBox="0 0 32 32" fill="none" xmlns="http://www.w3.org/2000/svg">
<circle cx="16" cy="16" r="16" fill="#1CD6FF"/>
<g clip-path="url(#clip0_393_895)">
<path d="M22.5562 12.8599C22.5564 12.8602 22.557 12.8603 22.5573 12.86L23.1431 12.4128C23.1799 12.3847 23.2058 12.3448 23.2164 12.2997L23.6213 10.5843C23.63 10.5475 23.649 10.5138 23.6761 10.4873L24.1157 10.0571C24.1531 10.0205 24.2033 10 24.2556 10H25.8271C25.8871 10 25.944 10.027 25.982 10.0736L26.3312 10.5015C26.3642 10.542 26.4117 10.5679 26.4635 10.5738L27.8082 10.7271C27.9152 10.7393 27.9933 10.8341 27.9849 10.9415L27.8977 12.057C27.8961 12.0769 27.8979 12.097 27.897 12.117C27.8939 12.1909 27.8397 12.3844 27.382 12.4917C26.8497 12.6165 25.2331 13.1961 25.0012 13.2796C24.982 13.2865 24.9651 13.2959 24.9489 13.3082L20.3601 16.8065C20.3238 16.8342 20.2981 16.8735 20.2871 16.9178L20.1527 17.4643C20.1202 17.5966 20.2266 17.722 20.3625 17.7114L23.4306 17.4726C23.5072 17.4666 23.5805 17.5051 23.6191 17.5716L23.6737 17.6658C23.6988 17.709 23.7068 17.7599 23.6962 17.8087L23.1566 20.2888C23.1452 20.3416 23.1127 20.3873 23.0667 20.4156C22.9293 20.4999 22.7541 20.3938 22.7652 20.233L22.8861 18.4837C22.8951 18.3526 22.7775 18.2486 22.6485 18.2736L19.883 18.8091C19.8296 18.8195 19.7742 18.8076 19.7297 18.7762L19.099 18.3311C19.0378 18.2879 19.0059 18.2141 19.0163 18.1399L19.3729 15.6013C19.3837 15.524 19.3487 15.4475 19.2831 15.4053L19.148 15.3183C19.0279 15.2409 18.8678 15.3108 18.8428 15.4514L18.2673 18.6903C18.2529 18.7717 18.29 18.8536 18.3607 18.8964L18.4341 18.9408C18.5031 18.9826 18.5402 19.0617 18.5283 19.1415L17.6774 24.8334C17.6632 24.9286 17.5814 24.9991 17.4852 24.9991C17.3732 24.9991 17.2844 24.9047 17.2911 24.7929L17.6879 18.2114C17.6928 18.1298 17.6476 18.0535 17.5737 18.0185L13.8609 16.264C13.7398 16.2068 13.5978 16.2824 13.5777 16.4148L13.1864 18.9926C13.1789 19.0424 13.1528 19.0875 13.1135 19.1189L11.4962 20.4105C11.4331 20.4609 11.4065 20.5443 11.4288 20.6219L12.5968 24.694C12.6335 24.8219 12.5375 24.9492 12.4046 24.9492H12.3145C12.2305 24.9492 12.1555 24.8967 12.1266 24.8179L10.5508 20.5087C10.5278 20.4458 10.5378 20.3756 10.5774 20.3217L12.0156 18.3616C12.0347 18.3355 12.0472 18.3053 12.0521 18.2733L12.4617 15.5785C12.4726 15.5068 12.4438 15.4348 12.3865 15.3904L12.2071 15.2513C12.0911 15.1614 11.9209 15.2229 11.8893 15.3663L11.3558 17.7847C11.3456 17.8308 11.3194 17.8719 11.2818 17.9006L7.87586 20.5003C7.83848 20.5289 7.81236 20.5697 7.80206 20.6155L6.85306 24.8438C6.83256 24.9351 6.75149 25 6.65791 25H6.58878C6.46384 25 6.36949 24.8867 6.39208 24.7638L7.22776 20.2178C7.23276 20.1906 7.24332 20.1648 7.2588 20.1419L9.22327 17.2372C9.24254 17.2087 9.25414 17.1757 9.25694 17.1414L9.61196 12.7959C9.62031 12.6937 9.54994 12.6017 9.44906 12.583L3.08278 11.4033C3.03481 11.3944 3 11.3525 3 11.3037C3 11.2436 3.05207 11.1968 3.11185 11.2031L9.626 11.8904L19.8032 11.6087C19.8184 11.6083 19.8334 11.6062 19.848 11.6024L22.5974 10.8876C22.7375 10.8512 22.8687 10.9711 22.8451 11.1139L22.5561 12.8593C22.556 12.8595 22.5561 12.8597 22.5562 12.8599Z" fill="black"/>
</g>
<defs>
<clipPath id="clip0_393_895">
<rect width="25" height="15" fill="white" transform="translate(3 10)"/>
</clipPath>
</defs>
</svg>
