<svg width="27" height="30" viewBox="0 0 27 30" fill="none" xmlns="http://www.w3.org/2000/svg">
<g filter="url(#filter0_d_892_6587)">
<path d="M12 19C13.775 18.9996 15.4988 18.4054 16.897 17.312L21.293 21.708L22.707 20.294L18.311 15.898C19.405 14.4997 19.9996 12.7754 20 11C20 6.589 16.411 3 12 3C7.589 3 4 6.589 4 11C4 15.411 7.589 19 12 19ZM12 5C15.309 5 18 7.691 18 11C18 14.309 15.309 17 12 17C8.691 17 6 14.309 6 11C6 7.691 8.691 5 12 5Z" fill="white"/>
</g>
<defs>
<filter id="filter0_d_892_6587" x="-3" y="0" width="32" height="32" filterUnits="userSpaceOnUse" color-interpolation-filters="sRGB">
<feFlood flood-opacity="0" result="BackgroundImageFix"/>
<feColorMatrix in="SourceAlpha" type="matrix" values="0 0 0 0 0 0 0 0 0 0 0 0 0 0 0 0 0 0 127 0" result="hardAlpha"/>
<feOffset dy="4"/>
<feGaussianBlur stdDeviation="2"/>
<feComposite in2="hardAlpha" operator="out"/>
<feColorMatrix type="matrix" values="0 0 0 0 0 0 0 0 0 0 0 0 0 0 0 0 0 0 0.25 0"/>
<feBlend mode="normal" in2="BackgroundImageFix" result="effect1_dropShadow_892_6587"/>
<feBlend mode="normal" in="SourceGraphic" in2="effect1_dropShadow_892_6587" result="shape"/>
</filter>
</defs>
</svg>
