<svg width="16" height="17" viewBox="0 0 16 17" fill="none" xmlns="http://www.w3.org/2000/svg">
<path d="M7.99961 10.0825L7.34343 10.8371C7.7197 11.1643 8.27952 11.1643 8.65579 10.8371L7.99961 10.0825ZM4.67279 10.9727C5.20407 10.8218 5.51245 10.2688 5.36157 9.73757C5.2107 9.20629 4.65771 8.89791 4.12643 9.04878L4.67279 10.9727ZM11.8728 9.04878C11.3415 8.89791 10.7885 9.20629 10.6376 9.73757C10.4868 10.2688 10.7952 10.8218 11.3264 10.9727L11.8728 9.04878ZM11.1996 5.21295H10.1996C10.1996 5.49665 10.0843 5.89023 9.82014 6.37831C9.56324 6.853 9.2081 7.33974 8.83253 7.78879C8.45974 8.23452 8.08407 8.62271 7.80032 8.90029C7.65905 9.03849 7.54207 9.14781 7.46159 9.22153C7.42139 9.25836 7.39041 9.28622 7.37018 9.30425C7.36006 9.31326 7.35265 9.31981 7.34813 9.32379C7.34586 9.32578 7.34433 9.32713 7.34353 9.32782C7.34314 9.32817 7.34293 9.32835 7.34291 9.32837C7.3429 9.32837 7.34294 9.32834 7.34303 9.32826C7.34307 9.32823 7.34317 9.32814 7.34319 9.32812C7.34331 9.32802 7.34343 9.32791 7.99961 10.0825C8.65579 10.8371 8.65594 10.837 8.6561 10.8369C8.65617 10.8368 8.65634 10.8366 8.65648 10.8365C8.65676 10.8363 8.65709 10.836 8.65747 10.8357C8.65823 10.835 8.65918 10.8342 8.66032 10.8332C8.66261 10.8312 8.66566 10.8285 8.66945 10.8252C8.67704 10.8185 8.68759 10.8092 8.70092 10.7973C8.72756 10.7735 8.76533 10.7396 8.81263 10.6962C8.90715 10.6096 9.04017 10.4852 9.1989 10.33C9.51515 10.0206 9.93948 9.5827 10.3667 9.0719C10.7911 8.56443 11.236 7.96421 11.5791 7.33021C11.9149 6.70959 12.1996 5.97273 12.1996 5.21295H11.1996ZM7.99961 10.0825C8.65579 9.32791 8.65591 9.32802 8.65603 9.32812C8.65605 9.32814 8.65615 9.32823 8.65619 9.32826C8.65628 9.32834 8.65632 9.32837 8.65631 9.32837C8.65629 9.32835 8.65608 9.32817 8.65568 9.32782C8.65489 9.32713 8.65336 9.32578 8.65109 9.32379C8.64657 9.31981 8.63915 9.31326 8.62904 9.30425C8.60881 9.28622 8.57783 9.25836 8.53763 9.22153C8.45715 9.14781 8.34017 9.03849 8.1989 8.90029C7.91515 8.62271 7.53948 8.23452 7.16669 7.78879C6.79112 7.33974 6.43597 6.853 6.17908 6.37831C5.91494 5.89023 5.79961 5.49665 5.79961 5.21295H4.79961H3.79961C3.79961 5.97273 4.08428 6.70959 4.42014 7.33021C4.76325 7.96421 5.2081 8.56443 5.63253 9.0719C6.05974 9.5827 6.48407 10.0206 6.80032 10.33C6.95905 10.4852 7.09206 10.6096 7.18659 10.6962C7.23389 10.7396 7.27166 10.7735 7.2983 10.7973C7.31163 10.8092 7.32218 10.8185 7.32977 10.8252C7.33356 10.8285 7.33661 10.8312 7.3389 10.8332C7.34004 10.8342 7.34099 10.835 7.34175 10.8357C7.34213 10.836 7.34245 10.8363 7.34274 10.8365C7.34288 10.8366 7.34305 10.8368 7.34312 10.8369C7.34328 10.837 7.34343 10.8371 7.99961 10.0825ZM4.79961 5.21295H5.79961C5.79961 4.05695 6.76375 3.08252 7.99961 3.08252V2.08252V1.08252C5.70085 1.08252 3.79961 2.91117 3.79961 5.21295H4.79961ZM7.99961 2.08252V3.08252C9.23547 3.08252 10.1996 4.05695 10.1996 5.21295H11.1996H12.1996C12.1996 2.91117 10.2984 1.08252 7.99961 1.08252V2.08252ZM14.3996 12.2159H13.3996C13.3996 12.2357 13.3942 12.3451 13.1949 12.5415C12.992 12.7413 12.6472 12.9672 12.1405 13.1784C11.1313 13.5989 9.66789 13.8825 7.99961 13.8825V14.8825V15.8825C9.86595 15.8825 11.6025 15.5692 12.9097 15.0245C13.5611 14.7531 14.1536 14.4045 14.5984 13.9662C15.0468 13.5245 15.3996 12.9324 15.3996 12.2159H14.3996ZM7.99961 14.8825V13.8825C6.33133 13.8825 4.86789 13.5989 3.85874 13.1784C3.35198 12.9672 3.00717 12.7413 2.80434 12.5415C2.60502 12.3451 2.59961 12.2357 2.59961 12.2159H1.59961H0.599609C0.599609 12.9324 0.952367 13.5245 1.40077 13.9662C1.84565 14.4045 2.4381 14.7531 3.08951 15.0245C4.3967 15.5692 6.13327 15.8825 7.99961 15.8825V14.8825ZM1.59961 12.2159H2.59961C2.59961 12.194 2.61193 12.0224 2.97627 11.7416C3.33059 11.4685 3.90077 11.192 4.67279 10.9727L4.39961 10.0107L4.12643 9.04878C3.20823 9.30954 2.37841 9.67726 1.75529 10.1576C1.14218 10.6301 0.599609 11.3211 0.599609 12.2159H1.59961ZM11.5996 10.0107L11.3264 10.9727C12.0984 11.192 12.6686 11.4685 13.0229 11.7416C13.3873 12.0224 13.3996 12.194 13.3996 12.2159H14.3996H15.3996C15.3996 11.3211 14.857 10.6301 14.2439 10.1576C13.6208 9.67726 12.791 9.30954 11.8728 9.04878L11.5996 10.0107Z" fill="#00FFC2"/>
</svg>
