<svg width="16" height="17" viewBox="0 0 16 17" fill="none" xmlns="http://www.w3.org/2000/svg">
<path fill-rule="evenodd" clip-rule="evenodd" d="M2.53848 4.61999C3.13857 4.02008 3.95235 3.68307 4.80088 3.68307C5.6494 3.68307 6.46319 4.02008 7.06328 4.61999L8.00088 5.55679L8.93848 4.61999C9.23367 4.31436 9.58677 4.07057 9.97718 3.90286C10.3676 3.73516 10.7875 3.64688 11.2124 3.64319C11.6373 3.6395 12.0587 3.72046 12.4519 3.88136C12.8452 4.04226 13.2025 4.27987 13.5029 4.58032C13.8034 4.88078 14.041 5.23807 14.2019 5.63134C14.3628 6.0246 14.4438 6.44598 14.4401 6.87087C14.4364 7.29577 14.3481 7.71567 14.1804 8.10608C14.0127 8.4965 13.7689 8.8496 13.4633 9.14479L8.00088 14.608L2.53848 9.14479C1.93857 8.5447 1.60156 7.73091 1.60156 6.88239C1.60156 6.03386 1.93857 5.22008 2.53848 4.61999V4.61999Z" stroke="#00FFC2" stroke-width="2" stroke-linejoin="round"/>
</svg>
