<svg width="146" height="152" viewBox="0 0 146 152" fill="none" xmlns="http://www.w3.org/2000/svg">
<path d="M133.63 126.055C133.63 137.222 123.232 146.291 110.402 146.291C105.676 146.325 101.034 145.036 96.9995 142.568C90.1761 148.136 81.6554 151.195 72.8547 151.239C64.0541 151.282 55.5038 148.306 48.6263 142.806C44.6709 145.108 40.1737 146.311 35.5989 146.291C22.7693 146.291 12.3711 137.222 12.3711 126.055V53.2903C12.3711 24.2833 39.8689 0.760864 73.1588 0.760864C103.879 0.760864 129.242 20.7985 132.958 46.6771C133.292 48.8655 133.457 51.0764 133.452 53.2903L133.63 126.055Z" fill="url(#paint0_linear_892_1064)"/>
<path d="M26.8411 38.817V43.9848C25.8922 45.3312 24.9829 46.7172 24.1328 48.1626V36.2826C24.9829 34.8372 25.8922 33.4512 26.8411 32.1048V36.9558C26.8306 36.7646 26.8306 36.5729 26.8411 36.3816C26.8627 36.195 26.8957 36.0098 26.9399 35.8272C27.4144 33.8472 27.869 31.8672 28.3632 30.006C29.4307 28.6398 30.5575 27.3132 31.7436 26.046C30.9331 28.8576 30.1424 31.689 29.3714 34.56L31.8227 37.8468C30.6366 39.0876 29.5098 40.4076 28.4423 41.8068L26.9399 39.5496C26.8918 39.4704 26.8583 39.3833 26.8411 39.2922C26.8275 39.1341 26.8275 38.9751 26.8411 38.817Z" fill="#281F24"/>
<path d="M42.3199 29.1749C40.5261 30.3331 38.7971 31.5889 37.1406 32.9369V21.0569C38.7971 19.7089 40.5261 18.4531 42.3199 17.2949C43.1581 16.7188 44.0776 16.2716 45.048 15.9683C45.6267 15.7438 46.2682 15.7438 46.8469 15.9683C47.0942 16.1138 47.3093 16.3083 47.4793 16.5397C47.6492 16.7712 47.7703 17.0349 47.8353 17.3147C48.0474 18.1555 48.1405 19.0219 48.1121 19.8887C48.1189 20.8592 48.0261 21.8279 47.8353 22.7795C47.6421 23.6093 47.3078 24.3997 46.8469 25.1159C46.3448 25.8586 45.739 26.5254 45.048 27.0959C44.1867 27.85 43.2752 28.5446 42.3199 29.1749ZM42.3199 20.2847L40.7582 21.3341V27.1355L42.3199 26.0861C42.7415 25.8438 43.1274 25.5439 43.4665 25.1951C43.7141 24.9034 43.8413 24.5281 43.8223 24.1457V20.3837C43.8223 19.9481 43.7037 19.7303 43.4665 19.7501C43.0743 19.8596 42.7056 20.0408 42.3792 20.2847H42.3199Z" fill="#281F24"/>
<path d="M54.4384 13.5129C57.8188 12.3645 59.5584 13.0773 59.5584 15.1563V21.8091L57.4234 22.3635L56.2176 21.6507C55.9884 21.9403 55.7373 22.2117 55.4664 22.4625C55.1699 22.7199 54.8536 22.9575 54.5373 23.1951C54.2129 23.4184 53.8763 23.6233 53.5291 23.8089C53.2202 23.989 52.8961 24.1414 52.5604 24.2643C52.0517 24.4788 51.5215 24.6381 50.9789 24.7395C50.5955 24.8305 50.1961 24.8305 49.8126 24.7395C49.4988 24.6265 49.2381 24.4006 49.0812 24.1059C48.8956 23.6751 48.8078 23.2085 48.8242 22.7397C48.8242 20.4825 50.6429 18.3837 54.4384 17.0571L55.2884 16.7601V16.0869L54.6954 16.2453L54.1814 16.4037C52.7646 16.9067 51.4318 17.621 50.2277 18.5223C50.0696 17.6709 49.9114 16.8393 49.7335 16.0077C51.1734 14.953 52.7581 14.1127 54.4384 13.5129ZM52.9755 20.5617V21.3339L53.8454 21.0171C54.2819 20.899 54.6914 20.6972 55.0512 20.4231C55.1951 20.2654 55.279 20.0622 55.2884 19.8489V18.9579L54.4384 19.2351C54.0447 19.3567 53.6716 19.537 53.3314 19.7697C53.2135 19.8639 53.1197 19.9849 53.0579 20.1226C52.996 20.2603 52.9678 20.4109 52.9755 20.5617Z" fill="#281F24"/>
<path d="M61.4961 21.3736V11.8696L63.6706 11.4538L64.8765 12.3448C65.7858 11.4824 66.9141 10.8865 68.1383 10.6222L68.3953 14.1862L67.7627 14.305C67.5134 14.3661 67.2689 14.4456 67.0312 14.5426C66.7928 14.6223 66.5614 14.7216 66.3394 14.8396C66.1551 14.9278 65.9929 15.0564 65.8649 15.2158V20.5618C64.4021 20.839 62.9392 21.0766 61.4961 21.3736Z" fill="#281F24"/>
<path d="M75.9853 20.2437L74.2655 16.4223H74.1271V20.1843C72.6445 20.1843 71.1816 20.1843 69.7188 20.2833V7.92808C71.1816 7.74988 72.6445 7.61128 74.1271 7.55188V13.8285H74.2655L75.8667 10.7397C77.4482 10.8189 79.0297 10.9575 80.6111 11.1555C79.7611 12.5613 78.911 13.9671 78.061 15.4125C78.9506 17.1549 79.8402 18.8973 80.7297 20.6793C79.1483 20.5605 77.5668 20.3229 75.9853 20.2437Z" fill="#281F24"/>
<path d="M93.3817 23.8284V17.1756L93.0852 17.0568L92.5514 16.8786H92.1165C92.0591 16.884 92.0033 16.9007 91.9524 16.9279C91.9014 16.9551 91.8565 16.9922 91.82 17.037C91.7315 17.1716 91.6898 17.3316 91.7014 17.4924V23.274C90.2978 22.7988 88.8745 22.383 87.4512 22.0266V12.5226C88.1628 12.7074 88.8745 12.9054 89.5862 13.1166L90.535 14.265C91.058 14.008 91.6328 13.8744 92.2154 13.8744C92.7979 13.8744 93.3727 14.008 93.8957 14.265C95.0423 14.6492 96.0658 15.3327 96.8609 16.245C97.8513 16.1315 98.8515 16.3472 99.7076 16.8588C100.663 17.335 101.505 18.0101 102.179 18.8388C102.708 19.4284 103.016 20.1847 103.048 20.9772V28.4814C101.763 27.6894 100.459 26.9568 99.0947 26.2836V19.6308L98.818 19.4724L98.3436 19.2744C98.2161 19.2034 98.0741 19.1627 97.9284 19.1556C97.8816 19.1354 97.8311 19.125 97.7802 19.125C97.7292 19.125 97.6787 19.1354 97.6319 19.1556C97.5828 19.2011 97.5435 19.2563 97.5163 19.3175C97.4891 19.3788 97.4746 19.4449 97.4737 19.512V25.452C96.1493 24.9174 94.7457 24.3432 93.3817 23.8284Z" fill="#281F24"/>
<path d="M109.215 23.1144C110.362 23.8938 111.325 24.9139 112.039 26.1038C112.752 27.2937 113.199 28.6248 113.347 30.0048V36.6576L111.667 35.034L110.678 33.054C110.477 33.1052 110.266 33.1052 110.065 33.054C109.795 33.0067 109.531 32.9337 109.275 32.8362L108.425 32.4204C108.129 32.2477 107.845 32.0558 107.574 31.8462C107.086 31.4749 106.618 31.0784 106.171 30.6583C105.776 30.2702 105.419 29.846 105.103 29.3911C104.813 28.9505 104.586 28.4704 104.431 27.9654C104.253 27.443 104.166 26.8938 104.174 26.3418C104.174 24.0846 105.953 23.946 109.215 26.5794L109.907 27.1734V26.5002L109.413 26.0448L108.978 25.6884C107.922 24.7786 106.718 24.0554 105.42 23.55C105.262 22.5402 105.103 21.57 104.965 20.5206C106.513 21.1474 107.949 22.0236 109.215 23.1144ZM107.95 28.6386V29.4108L108.701 30.0048C108.992 30.2855 109.335 30.5074 109.709 30.6583C109.848 30.6583 109.907 30.5196 109.907 30.3216V29.4306L109.195 28.8168C108.905 28.5743 108.587 28.3682 108.247 28.203C108.049 28.1436 107.95 28.302 107.95 28.6386Z" fill="#281F24"/>
<path d="M114.83 41.3112V28.6788C115.364 29.253 115.898 29.847 116.412 30.4608C116.589 30.9954 116.787 31.53 116.965 32.0844C117.42 31.8072 118.25 32.4012 119.397 34.0644C119.939 34.8378 120.409 35.6597 120.8 36.5196C121.151 37.3285 121.442 38.1624 121.67 39.0144C121.897 39.7989 122.062 40.5999 122.164 41.4102C122.256 42.1259 122.303 42.8468 122.303 43.5684C122.315 44.1065 122.268 44.6442 122.164 45.1722C122.164 45.588 121.947 45.8652 121.749 45.9642C121.551 46.0632 121.255 45.9642 120.919 45.7068C120.411 45.2451 119.966 44.7193 119.594 44.1426C119.061 43.3902 118.507 42.6378 117.934 41.9052V44.7564C116.926 43.509 115.898 42.3408 114.83 41.3112ZM117.934 35.5296V39.3312L118.388 39.9252C118.611 40.2506 118.869 40.5495 119.159 40.8162C119.318 40.935 119.397 40.8162 119.397 40.4796V36.7572L118.942 36.1434C118.744 35.8662 118.566 35.6484 118.428 35.49C118.344 35.3766 118.227 35.2932 118.092 35.2524C117.993 35.2326 117.934 35.3118 117.934 35.5296Z" fill="#281F24"/>
<path d="M56.1576 48.8358H52.0261V62.1414H46.3328V48.8754H42.2012V44.3214H56.1576V48.8358Z" fill="#281F24"/>
<path d="M57.1857 54.9741C57.0127 52.9135 57.6513 50.867 58.9648 49.2717C60.6445 48.0645 62.6599 47.4152 64.7273 47.4152C66.7947 47.4152 68.8101 48.0645 70.4898 49.2717C71.6595 50.9387 72.2872 52.9266 72.2872 54.9642C72.2872 57.0017 71.6595 58.9897 70.4898 60.6567C69.7074 61.342 68.7938 61.8605 67.8048 62.1805C66.8157 62.5005 65.772 62.6153 64.7372 62.5179C63.7081 62.6934 62.652 62.6197 61.6571 62.303C60.6622 61.9862 59.7574 61.4357 59.0183 60.6973C58.2791 59.959 57.7271 59.0542 57.4083 58.0585C57.0895 57.0629 57.0132 56.0053 57.1857 54.9741ZM63.3139 52.7763V58.3599H64.1836C64.6925 58.3915 65.2027 58.3243 65.6861 58.1619C66.0024 58.0035 66.1605 57.6867 66.1605 57.1521V51.5685H65.2709C64.7608 51.5432 64.2506 51.6172 63.7685 51.7863C63.4325 51.9249 63.2743 52.2417 63.2743 52.7763H63.3139Z" fill="#281F24"/>
<path d="M74.2266 47.8448H79.9199V58.3586H80.9083C81.4171 58.3903 81.9273 58.3231 82.4107 58.1607C82.5747 58.0533 82.7046 57.9011 82.7852 57.7222C82.8657 57.5433 82.8935 57.3451 82.8654 57.1508V47.8448H88.5586V62.1405H85.712L84.0514 60.5168C83.4469 61.1986 82.6939 61.7318 81.8506 62.0751C81.0073 62.4185 80.0964 62.5628 79.1884 62.4968C77.8664 62.6132 76.5484 62.232 75.4917 61.4276C75.0624 60.9343 74.7377 60.3587 74.5372 59.7359C74.3367 59.113 74.2647 58.4558 74.3254 57.8042L74.2266 47.8448Z" fill="#281F24"/>
<path d="M91.3066 62.1414V47.8854H94.1533L95.715 49.4694C96.9045 48.4138 98.3739 47.7261 99.9454 47.4894L100.281 52.8948C100.012 52.8692 99.7405 52.8692 99.471 52.8948L98.5023 53.1324C98.1967 53.2269 97.8992 53.3461 97.6128 53.4888C97.3809 53.5993 97.1727 53.7539 96.9999 53.9442V62.1414H91.3066Z" fill="#281F24"/>
<path d="M106.944 89.2276C107.644 89.2276 108.267 89.4355 108.815 89.8513C109.373 90.2569 109.804 90.84 110.108 91.6006C110.422 92.351 110.58 93.2383 110.58 94.2626C110.58 95.2969 110.422 96.1944 110.108 96.9549C109.804 97.7054 109.373 98.2885 108.815 98.7042C108.267 99.1099 107.644 99.3127 106.944 99.3127C106.244 99.3127 105.621 99.1099 105.073 98.7042C104.525 98.2885 104.095 97.7054 103.78 96.9549C103.466 96.1944 103.309 95.2969 103.309 94.2626C103.309 93.2383 103.466 92.351 103.78 91.6006C104.095 90.84 104.525 90.2569 105.073 89.8513C105.621 89.4355 106.244 89.2276 106.944 89.2276ZM106.944 91.0682C106.609 91.0682 106.31 91.1899 106.047 91.4333C105.793 91.6766 105.595 92.0366 105.453 92.5133C105.311 92.9797 105.24 93.5628 105.24 94.2626C105.24 94.9521 105.311 95.5403 105.453 96.0271C105.595 96.5037 105.793 96.8637 106.047 97.1071C106.31 97.3504 106.609 97.4721 106.944 97.4721C107.299 97.4721 107.603 97.3504 107.857 97.1071C108.11 96.8637 108.308 96.5037 108.45 96.0271C108.592 95.5403 108.663 94.9521 108.663 94.2626C108.663 93.5628 108.592 92.9797 108.45 92.5133C108.308 92.0366 108.11 91.6766 107.857 91.4333C107.603 91.1899 107.299 91.0682 106.944 91.0682ZM112.892 88.2389H114.915V102.37H112.892V88.2389ZM109.986 93.3347H113.744V94.9471H109.986V93.3347Z" fill="black"/>
<path d="M89.0879 96.6203H101.85V98.2631H89.0879V96.6203ZM94.4423 97.1831H96.4654V102.37H94.4423V97.1831ZM90.6699 94.0039H100.512V95.6011H90.6699V94.0039ZM90.6699 88.8169H100.375V90.3989H92.6777V94.369H90.6699V88.8169ZM92.0997 91.418H100.07V92.9544H92.0997V91.418Z" fill="black"/>
<path d="M81.7335 88.2693H83.6653V95.9206H81.7335V88.2693ZM80.1059 91.2051H82.3267V92.8327H80.1059V91.2051ZM78.7673 88.5279H80.6535V95.8293H78.7673V88.5279ZM72.1504 89.1972H77.7177V95.3425H72.1504V89.1972ZM75.8467 90.7487H74.0366V93.7758H75.8467V90.7487ZM74.0974 96.5138H76.0901V97.7763H81.6726V96.5138H83.6653V102.203H74.0974V96.5138ZM76.0901 99.3431V100.575H81.6726V99.3431H76.0901Z" fill="black"/>
<path d="M59.0998 89.4862H67.9832V91.1138H59.0998V89.4862ZM57.6699 99.0389H70.417V100.697H57.6699V99.0389ZM67.1313 89.4862H69.124V91.129C69.124 91.8085 69.1139 92.498 69.0936 93.1978C69.0733 93.8873 69.0175 94.6378 68.9263 95.449C68.835 96.2501 68.6829 97.1628 68.4699 98.1871L66.462 98.0045C66.6851 97.0614 66.8423 96.1944 66.9336 95.4034C67.0249 94.6124 67.0806 93.8671 67.1009 93.1673C67.1212 92.4676 67.1313 91.7882 67.1313 91.129V89.4862ZM67.542 93.3499V94.8406L58.9477 95.2665L58.6891 93.6389L67.542 93.3499Z" fill="black"/>
<path d="M52.6665 88.2389H54.7048V102.37H52.6665V88.2389ZM54.2636 93.4564H56.7431V95.1296H54.2636V93.4564ZM44.209 97.32H45.3955C46.1966 97.32 46.947 97.3099 47.6467 97.2896C48.3465 97.2592 49.0259 97.2135 49.685 97.1527C50.3442 97.0817 51.0186 96.9854 51.7081 96.8637L51.9059 98.5369C51.196 98.6586 50.4963 98.7549 49.8067 98.8259C49.1273 98.8969 48.4276 98.9426 47.7076 98.9628C46.9876 98.9831 46.2169 98.9933 45.3955 98.9933H44.209V97.32ZM44.209 89.5471H50.7803V91.1747H46.2321V98.111H44.209V89.5471Z" fill="black"/>
<path d="M38.1699 97.4569V95.8445H42.3226V97.4569H38.1699Z" fill="black"/>
<path d="M29.2266 101.001V89.7296H31.4778V94.6276H31.5235L35.2502 89.7296H37.7297L34.2919 94.1713L38.3381 101.001H35.8739L32.9533 95.9358L31.4778 97.8372V101.001H29.2266Z" fill="black"/>
<defs>
<linearGradient id="paint0_linear_892_1064" x1="17.7876" y1="28.4215" x2="128.39" y2="138.867" gradientUnits="userSpaceOnUse">
<stop stop-color="#E4DACC"/>
<stop offset="0.49" stop-color="#F1CFC8"/>
<stop offset="1" stop-color="#4F66E5"/>
</linearGradient>
</defs>
</svg>
