<svg width="605" height="605" viewBox="0 0 605 605" fill="none" xmlns="http://www.w3.org/2000/svg">
<g clip-path="url(#clip0_145_966)">
<path d="M302.984 605C469.783 605 605 469.566 605 302.5C605 135.434 469.783 0 302.984 0C136.184 0 0.966797 135.434 0.966797 302.5C0.966797 469.566 136.184 605 302.984 605Z" fill="black"/>
<mask id="mask0_145_966" style="mask-type:luminance" maskUnits="userSpaceOnUse" x="0" y="0" width="605" height="605">
<path d="M302.984 605C469.783 605 605 469.566 605 302.5C605 135.434 469.783 0 302.984 0C136.184 0 0.966797 135.434 0.966797 302.5C0.966797 469.566 136.184 605 302.984 605Z" fill="white"/>
</mask>
<g mask="url(#mask0_145_966)">
<path d="M605 0H0.966797V605H605V0Z" fill="#6D54CE"/>
<path d="M74.2961 0H70.6719V605H74.2961V0Z" fill="#281F24"/>
<path d="M150.765 0H147.141V605H150.765V0Z" fill="#281F24"/>
<path d="M227.297 0H223.673V605H227.297V0Z" fill="#281F24"/>
<path d="M303.829 0H300.205V605H303.829V0Z" fill="#281F24"/>
<path d="M380.359 0H376.734V605H380.359V0Z" fill="#281F24"/>
<path d="M456.891 0H453.267V605H456.891V0Z" fill="#281F24"/>
<path d="M533.423 0H529.799V605H533.423V0Z" fill="#281F24"/>
<path d="M604.034 70.7852H0V74.4152H604.034V70.7852Z" fill="#281F24"/>
<path d="M604.034 147.378H0V151.008H604.034V147.378Z" fill="#281F24"/>
<path d="M604.034 224.031H0V227.661H604.034V224.031Z" fill="#281F24"/>
<path d="M604.034 300.685H0V304.315H604.034V300.685Z" fill="#281F24"/>
<path d="M604.034 377.339H0V380.969H604.034V377.339Z" fill="#281F24"/>
<path d="M604.034 453.992H0V457.622H604.034V453.992Z" fill="#281F24"/>
<path d="M604.034 530.646H0V534.275H604.034V530.646Z" fill="#281F24"/>
<path d="M488.24 455.444C488.24 489.566 456.468 517.275 417.266 517.275C402.823 517.38 388.639 513.441 376.312 505.901C355.463 522.912 329.428 532.261 302.537 532.393C275.646 532.525 249.52 523.433 228.505 506.627C216.419 513.662 202.678 517.338 188.7 517.275C149.498 517.275 117.726 489.566 117.726 455.444V233.107C117.726 144.474 201.747 72.6001 303.466 72.6001C397.333 72.6001 474.83 133.826 486.186 212.9C487.206 219.587 487.711 226.342 487.696 233.107L488.24 455.444Z" fill="url(#paint0_linear_145_966)"/>
<path d="M161.942 188.881V204.672C159.043 208.786 156.264 213.021 153.667 217.437V181.137C156.264 176.721 159.043 172.486 161.942 168.372V183.194C161.91 182.61 161.91 182.024 161.942 181.44C162.008 180.869 162.109 180.304 162.244 179.746C163.694 173.696 165.083 167.646 166.593 161.959C169.855 157.784 173.298 153.731 176.922 149.859C174.446 158.45 172.03 167.101 169.674 175.874L177.164 185.917C173.54 189.708 170.097 193.741 166.835 198.017L162.244 191.12C162.097 190.878 161.995 190.611 161.942 190.333C161.901 189.85 161.901 189.364 161.942 188.881Z" fill="#281F24"/>
<path d="M209.236 159.418C203.755 162.957 198.471 166.794 193.41 170.913V134.613C198.471 130.494 203.755 126.657 209.236 123.118C211.797 121.357 214.606 119.991 217.572 119.064C219.34 118.378 221.3 118.378 223.068 119.064C223.824 119.509 224.481 120.103 225 120.81C225.52 121.518 225.89 122.323 226.088 123.178C226.736 125.747 227.021 128.395 226.934 131.043C226.955 134.009 226.671 136.969 226.088 139.876C225.498 142.412 224.476 144.827 223.068 147.015C221.534 149.285 219.683 151.322 217.572 153.065C214.94 155.369 212.155 157.492 209.236 159.418ZM209.236 132.253L204.464 135.46V153.186L209.236 149.98C210.524 149.239 211.703 148.323 212.739 147.257C213.496 146.366 213.885 145.219 213.827 144.051V132.556C213.827 131.225 213.464 130.559 212.739 130.62C211.541 130.954 210.414 131.508 209.417 132.253H209.236Z" fill="#281F24"/>
<path d="M246.264 111.562C256.593 108.053 261.908 110.231 261.908 116.584V136.912L255.385 138.606L251.7 136.428C251 137.313 250.233 138.142 249.405 138.908C248.499 139.695 247.532 140.421 246.566 141.147C245.575 141.829 244.546 142.455 243.485 143.022C242.542 143.573 241.551 144.038 240.526 144.414C238.971 145.069 237.351 145.556 235.693 145.866C234.522 146.144 233.301 146.144 232.13 145.866C231.171 145.521 230.374 144.83 229.895 143.93C229.328 142.614 229.059 141.188 229.109 139.755C229.109 132.858 234.667 126.445 246.264 122.392L248.861 121.484V119.427L247.049 119.911L245.479 120.395C241.15 121.932 237.077 124.115 233.398 126.869C232.915 124.267 232.432 121.726 231.888 119.185C236.288 115.963 241.13 113.395 246.264 111.562ZM241.794 133.1V135.46L244.452 134.492C245.786 134.131 247.037 133.515 248.136 132.677C248.576 132.195 248.832 131.574 248.861 130.922V128.2L246.264 129.047C245.061 129.419 243.921 129.969 242.881 130.68C242.521 130.968 242.235 131.338 242.046 131.759C241.857 132.18 241.77 132.639 241.794 133.1Z" fill="#281F24"/>
<path d="M267.83 135.581V106.541L274.474 105.27L278.159 107.993C280.938 105.357 284.385 103.537 288.126 102.729L288.911 113.619L286.978 113.982C286.216 114.169 285.469 114.412 284.743 114.708C284.014 114.952 283.307 115.255 282.629 115.616C282.066 115.885 281.57 116.278 281.179 116.765V133.1C276.709 133.947 272.24 134.673 267.83 135.581Z" fill="#281F24"/>
<path d="M312.105 132.132L306.85 120.455H306.427V131.95C301.897 131.95 297.427 131.95 292.957 132.253V94.5006C297.427 93.9561 301.897 93.5326 306.427 93.3511V112.53H306.85L311.742 103.092C316.575 103.334 321.407 103.757 326.239 104.362C323.642 108.658 321.045 112.953 318.447 117.37C321.165 122.694 323.884 128.018 326.602 133.463C321.769 133.1 316.937 132.374 312.105 132.132Z" fill="#281F24"/>
<path d="M365.258 143.083V122.755L364.352 122.392L362.721 121.847H361.392C361.216 121.864 361.046 121.915 360.89 121.998C360.735 122.081 360.597 122.194 360.486 122.331C360.216 122.742 360.088 123.231 360.123 123.723V141.389C355.835 139.937 351.486 138.666 347.137 137.577V108.537C349.311 109.102 351.486 109.707 353.66 110.352L356.56 113.861C358.158 113.076 359.914 112.668 361.694 112.668C363.474 112.668 365.23 113.076 366.828 113.861C370.332 115.035 373.459 117.124 375.889 119.911C378.915 119.564 381.971 120.223 384.587 121.787C387.505 123.242 390.079 125.305 392.137 127.837C393.756 129.638 394.696 131.949 394.795 134.371V157.3C390.869 154.88 386.882 152.642 382.714 150.585V130.257L381.869 129.773L380.419 129.168C380.03 128.951 379.596 128.826 379.151 128.805C379.007 128.743 378.853 128.711 378.698 128.711C378.542 128.711 378.388 128.743 378.245 128.805C378.095 128.944 377.974 129.112 377.891 129.299C377.808 129.487 377.764 129.689 377.761 129.894V148.044C373.714 146.41 369.426 144.656 365.258 143.083Z" fill="#281F24"/>
<path d="M413.641 140.905C417.144 143.286 420.088 146.403 422.268 150.039C424.448 153.675 425.812 157.742 426.265 161.959V182.287L421.131 177.326L418.111 171.276C417.496 171.432 416.852 171.432 416.238 171.276C415.413 171.131 414.604 170.908 413.822 170.61L411.225 169.34C410.322 168.812 409.454 168.226 408.627 167.585C407.136 166.451 405.704 165.239 404.339 163.955C403.133 162.77 402.041 161.473 401.077 160.083C400.188 158.737 399.496 157.27 399.023 155.727C398.479 154.131 398.214 152.453 398.238 150.766C398.238 143.869 403.674 143.446 413.641 151.492L415.755 153.307V151.25L414.245 149.859L412.916 148.77C409.688 145.99 406.011 143.78 402.043 142.236C401.56 139.15 401.077 136.186 400.654 132.979C405.385 134.894 409.772 137.572 413.641 140.905ZM409.775 157.784V160.144L412.07 161.959C412.959 162.816 414.005 163.494 415.151 163.955C415.574 163.955 415.755 163.532 415.755 162.927V160.204L413.58 158.329C412.694 157.588 411.72 156.958 410.681 156.453C410.077 156.272 409.775 156.756 409.775 157.784Z" fill="#281F24"/>
<path d="M430.798 196.504V157.905C432.429 159.66 434.06 161.474 435.63 163.35C436.174 164.983 436.778 166.617 437.321 168.311C438.711 167.464 441.248 169.279 444.751 174.361C446.408 176.724 447.844 179.235 449.04 181.863C450.113 184.335 451.001 186.883 451.697 189.486C452.391 191.883 452.896 194.331 453.207 196.806C453.489 198.993 453.631 201.196 453.63 203.401C453.667 205.045 453.525 206.688 453.207 208.301C453.207 209.572 452.543 210.419 451.939 210.722C451.335 211.024 450.429 210.721 449.402 209.935C447.852 208.524 446.492 206.918 445.355 205.156C443.724 202.857 442.033 200.557 440.281 198.319V207.031C437.201 203.219 434.06 199.65 430.798 196.504ZM440.281 178.838V190.454L441.67 192.269C442.35 193.263 443.14 194.177 444.026 194.991C444.509 195.354 444.751 194.991 444.751 193.963V182.589L443.362 180.713C442.758 179.866 442.214 179.201 441.791 178.717C441.536 178.37 441.176 178.116 440.764 177.991C440.462 177.93 440.281 178.172 440.281 178.838Z" fill="#281F24"/>
<path d="M251.521 219.494H238.896V260.15H221.5V219.615H208.876V205.7H251.521V219.494Z" fill="#281F24"/>
<path d="M254.662 238.249C254.133 231.953 256.084 225.7 260.098 220.825C265.23 217.137 271.388 215.153 277.705 215.153C284.023 215.153 290.181 217.137 295.313 220.825C298.887 225.919 300.805 231.993 300.805 238.219C300.805 244.445 298.887 250.519 295.313 255.613C292.922 257.707 290.131 259.291 287.109 260.269C284.087 261.247 280.898 261.598 277.736 261.3C274.591 261.836 271.364 261.611 268.324 260.643C265.284 259.675 262.52 257.993 260.261 255.737C258.003 253.481 256.316 250.716 255.342 247.674C254.368 244.632 254.134 241.4 254.662 238.249ZM273.387 231.534V248.595H276.044C277.599 248.691 279.158 248.486 280.635 247.99C281.601 247.506 282.085 246.538 282.085 244.904V227.843H279.367C277.808 227.766 276.249 227.992 274.776 228.509C273.749 228.932 273.266 229.9 273.266 231.534H273.387Z" fill="#281F24"/>
<path d="M306.729 216.469H324.125V248.595H327.145C328.7 248.691 330.259 248.486 331.736 247.99C332.237 247.662 332.634 247.197 332.88 246.65C333.126 246.103 333.211 245.498 333.125 244.904V216.469H350.521V260.15H341.823L336.749 255.189C334.902 257.272 332.601 258.902 330.024 259.951C327.447 261 324.664 261.441 321.89 261.239C317.85 261.595 313.823 260.43 310.594 257.972C309.283 256.465 308.29 254.706 307.678 252.803C307.065 250.9 306.845 248.892 307.031 246.901L306.729 216.469Z" fill="#281F24"/>
<path d="M358.917 260.15V216.59H367.615L372.387 221.43C376.022 218.205 380.511 216.103 385.313 215.38L386.34 231.897C385.517 231.818 384.687 231.818 383.864 231.897L380.904 232.623C379.97 232.912 379.061 233.276 378.186 233.712C377.477 234.049 376.841 234.522 376.313 235.103V260.15H358.917Z" fill="#281F24"/>
</g>
<circle cx="302.5" cy="302.5" r="297.917" stroke="#F1CFC8" stroke-width="9.16667"/>
</g>
<path d="M169.23 380.111V345.717H176.108V360.636H176.201L187.635 345.717H195.211L184.661 359.242L197.024 380.111H189.541L180.617 364.68L176.108 370.443V380.111H169.23ZM196.507 369.282V364.401H209.242V369.282H196.507ZM240.854 341.162H247.082V384.341H240.854V341.162ZM245.687 357.104H253.31V362.17H245.687V357.104ZM215.011 368.863H218.637C225.887 368.863 231.604 368.631 237.925 367.515L238.53 372.628C232.023 373.79 226.12 373.976 218.637 373.976H215.011V368.863ZM215.011 345.159H235.09V350.132H221.146V371.327H215.011V345.159ZM260.51 344.973H287.608V349.9H260.51V344.973ZM256.141 374.115H295.044V379.182H256.141V374.115ZM285.005 344.973H291.094V349.946C291.094 356.221 291.094 362.17 289.095 371.559L283.006 371.001C285.005 362.31 285.005 356.035 285.005 349.946V344.973ZM286.306 356.779V361.334L259.999 362.635L259.256 357.662L286.306 356.779ZM329.667 341.255H335.524V364.587H329.667V341.255ZM324.648 350.179H331.48V355.152H324.648V350.179ZM320.558 342.045H326.321V364.308H320.558V342.045ZM300.339 344.043H317.397V362.821H300.339V344.043ZM311.634 348.784H306.103V358.034H311.634V348.784ZM306.335 366.4H312.424V370.258H329.481V366.4H335.524V383.783H306.335V366.4ZM312.424 375.045V378.856H329.481V375.045H312.424ZM354.636 366.725H393.585V371.745H354.636V366.725ZM370.996 368.491H377.131V384.294H370.996V368.491ZM359.469 358.731H389.541V363.611H359.469V358.731ZM359.469 342.928H389.076V347.762H365.558V359.893H359.469V342.928ZM363.838 350.876H388.147V355.57H363.838V350.876ZM409.198 344.183C415.612 344.183 420.307 350.132 420.307 359.521C420.307 369.003 415.612 374.952 409.198 374.952C402.738 374.952 398.09 369.003 398.09 359.521C398.09 350.132 402.738 344.183 409.198 344.183ZM409.198 349.807C406.084 349.807 403.993 353.2 403.993 359.521C403.993 365.935 406.084 369.374 409.198 369.374C412.359 369.374 414.404 365.935 414.404 359.521C414.404 353.2 412.359 349.807 409.198 349.807ZM427.371 341.162H433.507V384.341H427.371V341.162ZM418.494 356.686H429.974V361.659H418.494V356.686Z" fill="black"/>
<path d="M243.556 438.167V421.014H248.067V438.167H243.556ZM245.796 418.222C244.231 418.222 243.188 417.24 243.188 415.736C243.188 414.263 244.231 413.312 245.796 413.312C247.361 413.312 248.435 414.263 248.435 415.736C248.435 417.24 247.361 418.222 245.796 418.222ZM252.875 438.167V421.014H256.527L256.895 423.285H256.987C258.46 421.812 260.239 420.584 262.572 420.584C266.254 420.584 267.88 423.162 267.88 427.458V438.167H263.369V428.041C263.369 425.341 262.602 424.451 260.945 424.451C259.534 424.451 258.644 425.126 257.386 426.353V438.167H252.875ZM292.617 421.352H300.105V424.635H292.617V421.352ZM284.885 414.662H288.199V418.774C288.199 425.924 285.775 432.521 280.436 435.19L277.889 431.907C282.737 429.667 284.885 424.175 284.885 418.774V414.662ZM285.744 414.662H288.997V418.774C288.997 424.175 291.053 429.36 295.747 431.447L293.323 434.699C287.984 432.122 285.744 425.862 285.744 418.774V414.662ZM298.079 412.453H302.13V440.959H298.079V412.453ZM317.286 426.016H321.367V429.974H317.286V426.016ZM319.372 412.76C325.847 412.76 329.651 414.448 329.651 417.577C329.651 420.707 325.847 422.426 319.372 422.426C312.867 422.426 309.093 420.707 309.093 417.577C309.093 414.448 312.867 412.76 319.372 412.76ZM319.372 415.736C315.26 415.736 313.327 416.319 313.327 417.577C313.327 418.897 315.26 419.449 319.372 419.449C323.484 419.449 325.417 418.897 325.417 417.577C325.417 416.319 323.484 415.736 319.372 415.736ZM306.515 423.653H332.198V426.875H306.515V423.653ZM309.461 428.716H329.099V436.019H313.511V438.535H309.492V433.196H325.079V431.754H309.461V428.716ZM309.492 437.645H329.836V440.714H309.492V437.645ZM354.442 412.484H358.523V433.411H354.442V412.484ZM335.448 414.509H350.453V417.761H335.448V414.509ZM335.142 430.035L334.743 426.691C339.315 426.691 345.697 426.629 350.821 426.046L351.036 429.023C345.758 429.913 339.652 430.035 335.142 430.035ZM337.688 417.363H341.616V427.09H337.688V417.363ZM344.286 417.363H348.183V427.09H344.286V417.363ZM351.006 417.455H356.651V420.707H351.006V417.455ZM351.006 423.162H356.651V426.445H351.006V423.162ZM339.744 437.154H359.168V440.407H339.744V437.154ZM339.744 431.876H343.856V439.609H339.744V431.876Z" fill="black"/>
<defs>
<linearGradient id="paint0_linear_145_966" x1="134.276" y1="157.119" x2="472.229" y2="494.592" gradientUnits="userSpaceOnUse">
<stop stop-color="#E4DACC"/>
<stop offset="0.49" stop-color="#F1CFC8"/>
<stop offset="1" stop-color="#4F66E5"/>
</linearGradient>
<clipPath id="clip0_145_966">
<rect width="605" height="605" fill="white"/>
</clipPath>
</defs>
</svg>
