<svg width="198" height="198" viewBox="0 0 198 198" fill="none" xmlns="http://www.w3.org/2000/svg">
<g clip-path="url(#clip0_53_579)">
<path d="M99.1583 198C153.747 198 198 153.676 198 99C198 44.3238 153.747 0 99.1583 0C44.5694 0 0.316406 44.3238 0.316406 99C0.316406 153.676 44.5694 198 99.1583 198Z" fill="black"/>
<mask id="mask0_53_579" style="mask-type:luminance" maskUnits="userSpaceOnUse" x="0" y="0" width="198" height="198">
<path d="M99.1583 198C153.747 198 198 153.676 198 99C198 44.3238 153.747 0 99.1583 0C44.5694 0 0.316406 44.3238 0.316406 99C0.316406 153.676 44.5694 198 99.1583 198Z" fill="white"/>
</mask>
<g mask="url(#mask0_53_579)">
<path d="M198 0H0.316406V198H198V0Z" fill="#6D54CE"/>
<path d="M24.315 0H23.1289V198H24.315V0Z" fill="#281F24"/>
<path d="M49.3414 0H48.1553V198H49.3414V0Z" fill="#281F24"/>
<path d="M74.3883 0H73.2021V198H74.3883V0Z" fill="#281F24"/>
<path d="M99.4351 0H98.249V198H99.4351V0Z" fill="#281F24"/>
<path d="M124.481 0H123.295V198H124.481V0Z" fill="#281F24"/>
<path d="M149.528 0H148.342V198H149.528V0Z" fill="#281F24"/>
<path d="M174.575 0H173.389V198H174.575V0Z" fill="#281F24"/>
<path d="M197.684 23.166H0V24.354H197.684V23.166Z" fill="#281F24"/>
<path d="M197.684 48.2328H0V49.4208H197.684V48.2328Z" fill="#281F24"/>
<path d="M197.684 73.3194H0V74.5074H197.684V73.3194Z" fill="#281F24"/>
<path d="M197.684 98.406H0V99.594H197.684V98.406Z" fill="#281F24"/>
<path d="M197.684 123.493H0V124.681H197.684V123.493Z" fill="#281F24"/>
<path d="M197.684 148.579H0V149.767H197.684V148.579Z" fill="#281F24"/>
<path d="M197.684 173.666H0V174.854H197.684V173.666Z" fill="#281F24"/>
<path d="M159.787 149.054C159.787 160.222 149.389 169.29 136.56 169.29C131.833 169.324 127.191 168.035 123.157 165.568C116.333 171.135 107.813 174.195 99.012 174.238C90.2113 174.281 81.6611 171.305 74.7835 165.805C70.8281 168.108 66.3309 169.311 61.7562 169.29C48.9265 169.29 38.5283 160.222 38.5283 149.054V76.2894C38.5283 47.2824 66.0261 23.76 99.3161 23.76C130.036 23.76 155.399 43.7976 159.115 69.6762C159.449 71.8647 159.614 74.0756 159.61 76.2894L159.787 149.054Z" fill="url(#paint0_linear_53_579)"/>
<path d="M52.9993 61.8156V66.9834C52.0504 68.3298 51.1411 69.7158 50.291 71.1612V59.2812C51.1411 57.8358 52.0504 56.4498 52.9993 55.1034V59.9544C52.9888 59.7632 52.9888 59.5715 52.9993 59.3802C53.0209 59.1936 53.0539 59.0084 53.0981 58.8258C53.5726 56.8458 54.0272 54.8658 54.5214 53.0046C55.5889 51.6384 56.7157 50.3118 57.9019 49.0446C57.0913 51.8562 56.3006 54.6876 55.5296 57.5586L57.9809 60.8454C56.7948 62.0862 55.668 63.4062 54.6005 64.8054L53.0981 62.5482C53.05 62.469 53.0165 62.3819 52.9993 62.2908C52.9857 62.1327 52.9857 61.9737 52.9993 61.8156Z" fill="#281F24"/>
<path d="M68.4772 52.173C66.6833 53.3312 64.9543 54.587 63.2979 55.935V44.055C64.9543 42.707 66.6833 41.4512 68.4772 40.293C69.3153 39.7169 70.2348 39.2697 71.2052 38.9664C71.7839 38.7419 72.4254 38.7419 73.0041 38.9664C73.2514 39.1119 73.4666 39.3064 73.6365 39.5378C73.8064 39.7693 73.9275 40.033 73.9925 40.3128C74.2046 41.1536 74.2978 42.0201 74.2693 42.8868C74.2761 43.8573 74.1834 44.826 73.9925 45.7776C73.7994 46.6074 73.465 47.3978 73.0041 48.114C72.502 48.8567 71.8962 49.5235 71.2052 50.094C70.3439 50.8481 69.4324 51.5427 68.4772 52.173ZM68.4772 43.2828L66.9155 44.3322V50.1336L68.4772 49.0842C68.8988 48.8419 69.2847 48.542 69.6237 48.1932C69.8713 47.9015 69.9986 47.5262 69.9796 47.1438V43.3818C69.9796 42.9462 69.8609 42.7284 69.6237 42.7482C69.2315 42.8577 68.8629 43.039 68.5365 43.2828H68.4772Z" fill="#281F24"/>
<path d="M80.5956 36.5112C83.976 35.3628 85.7156 36.0756 85.7156 38.1546V44.8074L83.5807 45.3618L82.3748 44.649C82.1456 44.9386 81.8945 45.21 81.6236 45.4608C81.3271 45.7182 81.0108 45.9558 80.6945 46.1934C80.3701 46.4167 80.0335 46.6216 79.6863 46.8072C79.3775 46.9873 79.0533 47.1397 78.7176 47.2626C78.2089 47.4771 77.6788 47.6364 77.1362 47.7378C76.7527 47.8287 76.3533 47.8287 75.9698 47.7378C75.656 47.6248 75.3953 47.3989 75.2384 47.1042C75.0528 46.6734 74.965 46.2068 74.9814 45.738C74.9814 43.4808 76.8001 41.382 80.5956 40.0554L81.4457 39.7584V39.0852L80.8526 39.2436L80.3386 39.402C78.9219 39.905 77.589 40.6193 76.385 41.5206C76.2268 40.6692 76.0687 39.8376 75.8908 39.006C77.3306 37.9513 78.9154 37.111 80.5956 36.5112ZM79.1328 43.56V44.3322L80.0026 44.0154C80.4391 43.8973 80.8486 43.6955 81.2085 43.4214C81.3523 43.2637 81.4362 43.0605 81.4457 42.8472V41.9562L80.5956 42.2334C80.202 42.355 79.8288 42.5353 79.4886 42.768C79.3707 42.8622 79.277 42.9832 79.2151 43.1209C79.1532 43.2586 79.125 43.4091 79.1328 43.56Z" fill="#281F24"/>
<path d="M87.6533 44.3718V34.8678L89.8279 34.452L91.0337 35.343C91.943 34.4805 93.0713 33.8847 94.2955 33.6204L94.5525 37.1844L93.9199 37.3032C93.6706 37.3643 93.4261 37.4437 93.1885 37.5408C92.95 37.6205 92.7186 37.7198 92.4966 37.8378C92.3123 37.926 92.1502 38.0546 92.0221 38.214V43.56C90.5593 43.8372 89.0964 44.0748 87.6533 44.3718Z" fill="#281F24"/>
<path d="M102.144 43.2432L100.424 39.4218H100.285V43.1838C98.8027 43.1838 97.3398 43.1838 95.877 43.2828V30.9276C97.3398 30.7494 98.8027 30.6108 100.285 30.5514V36.828H100.424L102.025 33.7392C103.606 33.8184 105.188 33.957 106.769 34.155C105.919 35.5608 105.069 36.9666 104.219 38.412C105.109 40.1544 105.998 41.8968 106.888 43.6788C105.306 43.56 103.725 43.3224 102.144 43.2432Z" fill="#281F24"/>
<path d="M119.539 46.827V40.1742L119.242 40.0554L118.709 39.8772H118.274C118.216 39.8826 118.16 39.8993 118.11 39.9265C118.059 39.9537 118.014 39.9908 117.977 40.0356C117.889 40.1702 117.847 40.3302 117.859 40.491V46.2726C116.455 45.7974 115.032 45.3816 113.608 45.0252V35.5212C114.32 35.706 115.032 35.904 115.743 36.1152L116.692 37.2636C117.215 37.0066 117.79 36.873 118.373 36.873C118.955 36.873 119.53 37.0066 120.053 37.2636C121.199 37.6478 122.223 38.3313 123.018 39.2436C124.009 39.1301 125.009 39.3458 125.865 39.8574C126.82 40.3336 127.662 41.0087 128.336 41.8374C128.866 42.427 129.173 43.1833 129.206 43.9758V51.48C127.921 50.688 126.616 49.9554 125.252 49.2822V42.6294L124.975 42.471L124.501 42.273C124.373 42.202 124.231 42.1613 124.086 42.1542C124.039 42.134 123.988 42.1236 123.937 42.1236C123.886 42.1236 123.836 42.134 123.789 42.1542C123.74 42.1997 123.701 42.2549 123.674 42.3161C123.646 42.3774 123.632 42.4435 123.631 42.5106V48.4506C122.306 47.916 120.903 47.3418 119.539 46.827Z" fill="#281F24"/>
<path d="M135.373 46.1142C136.52 46.8936 137.484 47.9137 138.197 49.1035C138.911 50.2934 139.357 51.6246 139.505 53.0046V59.6574L137.825 58.0338L136.836 56.0538C136.635 56.1049 136.425 56.1049 136.223 56.0538C135.954 56.0064 135.689 55.9335 135.433 55.836L134.583 55.4202C134.287 55.2474 134.003 55.0556 133.733 54.846C133.245 54.4747 132.776 54.0782 132.329 53.658C131.934 53.27 131.577 52.8457 131.262 52.3908C130.971 51.9502 130.744 51.4701 130.59 50.9652C130.411 50.4428 130.325 49.8935 130.333 49.3416C130.333 47.0844 132.112 46.9458 135.373 49.5792L136.065 50.1732V49.5L135.571 49.0446L135.136 48.6882C134.08 47.7783 132.877 47.0552 131.578 46.5498C131.42 45.54 131.262 44.5698 131.123 43.5204C132.672 44.1472 134.107 45.0233 135.373 46.1142ZM134.108 51.6384V52.4106L134.859 53.0046C135.15 53.2853 135.493 53.5071 135.868 53.658C136.006 53.658 136.065 53.5194 136.065 53.3214V52.4304L135.354 51.8166C135.063 51.5741 134.745 51.368 134.405 51.2028C134.207 51.1434 134.108 51.3018 134.108 51.6384Z" fill="#281F24"/>
<path d="M140.988 64.3104V51.678C141.522 52.2522 142.056 52.8462 142.57 53.46C142.748 53.9946 142.945 54.5292 143.123 55.0836C143.578 54.8064 144.408 55.4004 145.555 57.0636C146.097 57.837 146.567 58.6589 146.958 59.5188C147.309 60.3277 147.6 61.1616 147.828 62.0136C148.055 62.7981 148.22 63.5991 148.322 64.4094C148.415 65.1251 148.461 65.846 148.461 66.5676C148.473 67.1057 148.426 67.6434 148.322 68.1714C148.322 68.5872 148.105 68.8644 147.907 68.9634C147.71 69.0624 147.413 68.9634 147.077 68.706C146.57 68.2443 146.124 67.7185 145.752 67.1418C145.219 66.3894 144.665 65.637 144.092 64.9044V67.7556C143.084 66.5082 142.056 65.34 140.988 64.3104ZM144.092 58.5288V62.3304L144.547 62.9244C144.769 63.2498 145.028 63.5487 145.318 63.8154C145.476 63.9342 145.555 63.8154 145.555 63.4788V59.7564L145.1 59.1426C144.902 58.8654 144.724 58.6476 144.586 58.4892C144.503 58.3758 144.385 58.2925 144.25 58.2516C144.151 58.2318 144.092 58.311 144.092 58.5288Z" fill="#281F24"/>
<path d="M82.3158 71.8344H78.1843V85.14H72.491V71.874H68.3594V67.32H82.3158V71.8344Z" fill="#281F24"/>
<path d="M83.3439 77.9724C83.1709 75.9118 83.8095 73.8653 85.123 72.27C86.8027 71.0627 88.8181 70.4135 90.8855 70.4135C92.9529 70.4135 94.9683 71.0627 96.648 72.27C97.8177 73.937 98.4454 75.9249 98.4454 77.9625C98.4454 80 97.8177 81.9879 96.648 83.655C95.8656 84.3403 94.952 84.8588 93.963 85.1788C92.9739 85.4988 91.9302 85.6136 90.8954 85.5162C89.8663 85.6917 88.8102 85.618 87.8153 85.3012C86.8204 84.9845 85.9156 84.434 85.1765 83.6956C84.4374 82.9573 83.8853 82.0525 83.5665 81.0568C83.2477 80.0612 83.1714 79.0036 83.3439 77.9724ZM89.4721 75.7746V81.3582H90.3418C90.8507 81.3898 91.3609 81.3226 91.8443 81.1602C92.1606 81.0018 92.3187 80.685 92.3187 80.1504V74.5668H91.4291C90.919 74.5415 90.4088 74.6155 89.9267 74.7846C89.5907 74.9232 89.4325 75.24 89.4325 75.7746H89.4721Z" fill="#281F24"/>
<path d="M100.384 70.8444H106.077V81.3582H107.066C107.574 81.3899 108.085 81.3226 108.568 81.1602C108.732 81.0528 108.862 80.9007 108.942 80.7218C109.023 80.5429 109.051 80.3446 109.023 80.1504V70.8444H114.716V85.14H111.869L110.209 83.5164C109.604 84.1981 108.851 84.7313 108.008 85.0747C107.164 85.4181 106.254 85.5623 105.346 85.4964C104.024 85.6127 102.706 85.2316 101.649 84.4272C101.22 83.9339 100.895 83.3583 100.694 82.7354C100.494 82.1126 100.422 81.4554 100.483 80.8038L100.384 70.8444Z" fill="#281F24"/>
<path d="M117.464 85.14V70.884H120.311L121.872 72.468C123.062 71.4125 124.531 70.7248 126.103 70.488L126.439 75.8934C126.169 75.8678 125.898 75.8678 125.628 75.8934L124.66 76.131C124.354 76.2256 124.056 76.3448 123.77 76.4874C123.538 76.5979 123.33 76.7526 123.157 76.9428V85.14H117.464Z" fill="#281F24"/>
</g>
<circle cx="99" cy="99" r="97.5" stroke="#F1CFC8" stroke-width="3"/>
</g>
<defs>
<linearGradient id="paint0_linear_53_579" x1="43.9449" y1="51.4206" x2="154.548" y2="161.866" gradientUnits="userSpaceOnUse">
<stop stop-color="#E4DACC"/>
<stop offset="0.49" stop-color="#F1CFC8"/>
<stop offset="1" stop-color="#4F66E5"/>
</linearGradient>
<clipPath id="clip0_53_579">
<rect width="198" height="198" fill="white"/>
</clipPath>
</defs>
</svg>
