<svg width="790" height="790" viewBox="0 0 790 790" fill="none" xmlns="http://www.w3.org/2000/svg">
<g clip-path="url(#clip0_450_1745)">
<path d="M395.631 790C613.435 790 790 613.152 790 395C790 176.848 613.435 0 395.631 0C177.827 0 1.26198 176.848 1.26198 395C1.26198 613.152 177.827 790 395.631 790Z" fill="black"/>
<mask id="mask0_450_1745" style="mask-type:luminance" maskUnits="userSpaceOnUse" x="1" y="0" width="790" height="790">
<path d="M395.633 790C613.436 790 790.001 613.152 790.001 395C790.001 176.848 613.436 0 395.633 0C177.829 0 1.26352 176.848 1.26352 395C1.26352 613.152 177.829 790 395.633 790Z" fill="white"/>
</mask>
<g mask="url(#mask0_450_1745)">
<path d="M790 0H1.26225V790H790V0Z" fill="#6D54CE"/>
<path d="M97.0149 0H92.2825V790H97.0149V0Z" fill="#281F24"/>
<path d="M196.867 0H192.135V790H196.867V0Z" fill="#281F24"/>
<path d="M296.802 0H292.069V790H296.802V0Z" fill="#281F24"/>
<path d="M396.736 0H392.004V790H396.736V0Z" fill="#281F24"/>
<path d="M496.667 0H491.934V790H496.667V0Z" fill="#281F24"/>
<path d="M596.601 0H591.869V790H596.601V0Z" fill="#281F24"/>
<path d="M696.536 0H691.803V790H696.536V0Z" fill="#281F24"/>
<path d="M788.738 92.4302H0.000274658V97.1702H788.738V92.4302Z" fill="#281F24"/>
<path d="M788.738 192.445H0.000274658V197.185H788.738V192.445Z" fill="#281F24"/>
<path d="M788.738 292.537H0.000274658V297.277H788.738V292.537Z" fill="#281F24"/>
<path d="M788.738 392.63H0.000274658V397.37H788.738V392.63Z" fill="#281F24"/>
<path d="M788.738 492.723H0.000274658V497.463H788.738V492.723Z" fill="#281F24"/>
<path d="M788.738 592.816H0.000274658V597.556H788.738V592.816Z" fill="#281F24"/>
<path d="M788.738 692.909H0.000274658V697.649H788.738V692.909Z" fill="#281F24"/>
<path d="M637.536 594.712C637.536 639.268 596.048 675.45 544.859 675.45C526 675.587 507.478 670.443 491.383 660.598C464.158 682.811 430.162 695.019 395.048 695.192C359.934 695.364 325.82 683.491 298.379 661.546C282.597 670.732 264.654 675.532 246.401 675.45C195.212 675.45 153.724 639.268 153.724 594.712V304.387C153.724 188.652 263.438 94.8003 396.261 94.8003C518.831 94.8003 620.026 174.748 634.854 278.001C636.186 286.733 636.846 295.554 636.826 304.387L637.536 594.712Z" fill="url(#paint0_linear_450_1745)"/>
<path d="M211.462 246.638V267.257C207.676 272.629 204.048 278.159 200.657 283.926V236.526C204.048 230.759 207.676 225.229 211.462 219.857V239.212C211.42 238.449 211.42 237.684 211.462 236.921C211.549 236.177 211.68 235.438 211.857 234.709C213.75 226.809 215.564 218.909 217.536 211.483C221.795 206.032 226.291 200.739 231.023 195.683C227.789 206.901 224.634 218.198 221.558 229.653L231.339 242.767C226.606 247.718 222.11 252.985 217.851 258.567L211.857 249.561C211.665 249.245 211.531 248.898 211.462 248.534C211.408 247.904 211.408 247.269 211.462 246.638Z" fill="#281F24"/>
<path d="M273.218 208.165C266.06 212.786 259.162 217.797 252.553 223.175V175.775C259.162 170.397 266.06 165.386 273.218 160.765C276.562 158.467 280.231 156.682 284.102 155.472C286.411 154.577 288.971 154.577 291.28 155.472C292.266 156.053 293.125 156.829 293.803 157.752C294.481 158.676 294.964 159.728 295.223 160.844C296.069 164.199 296.441 167.656 296.328 171.114C296.355 174.987 295.985 178.852 295.223 182.648C294.453 185.959 293.119 189.113 291.28 191.97C289.276 194.934 286.859 197.594 284.102 199.87C280.666 202.879 277.029 205.65 273.218 208.165ZM273.218 172.694L266.987 176.881V200.028L273.218 195.841C274.9 194.875 276.439 193.678 277.792 192.286C278.78 191.122 279.288 189.625 279.212 188.099V173.089C279.212 171.351 278.739 170.482 277.792 170.561C276.227 170.998 274.756 171.721 273.454 172.694H273.218Z" fill="#281F24"/>
<path d="M321.568 145.676C335.056 141.094 341.997 143.938 341.997 152.233V178.777L333.478 180.989L328.667 178.145C327.753 179.301 326.751 180.384 325.67 181.384C324.487 182.411 323.225 183.359 321.963 184.307C320.669 185.198 319.326 186.016 317.94 186.756C316.708 187.475 315.415 188.083 314.075 188.573C312.046 189.429 309.93 190.065 307.765 190.469C306.235 190.832 304.642 190.832 303.112 190.469C301.86 190.019 300.819 189.117 300.193 187.941C299.453 186.223 299.103 184.361 299.168 182.49C299.168 173.484 306.425 165.11 321.568 159.817L324.96 158.632V155.946L322.594 156.578L320.543 157.21C314.89 159.217 309.572 162.067 304.768 165.663C304.137 162.266 303.506 158.948 302.796 155.63C308.541 151.422 314.864 148.07 321.568 145.676ZM315.732 173.8V176.881L319.202 175.617C320.944 175.146 322.578 174.341 324.013 173.247C324.587 172.618 324.922 171.808 324.96 170.956V167.401L321.568 168.507C319.998 168.993 318.509 169.712 317.151 170.64C316.681 171.016 316.307 171.499 316.06 172.049C315.813 172.598 315.701 173.199 315.732 173.8Z" fill="#281F24"/>
<path d="M349.729 177.039V139.119L358.405 137.46L363.216 141.015C366.844 137.574 371.346 135.197 376.231 134.142L377.256 148.362L374.732 148.836C373.737 149.08 372.762 149.397 371.814 149.784C370.862 150.102 369.939 150.498 369.053 150.969C368.318 151.321 367.671 151.834 367.16 152.47V173.8C361.323 174.906 355.487 175.854 349.729 177.039Z" fill="#281F24"/>
<path d="M407.542 172.536L400.68 157.289H400.128V172.299C394.213 172.299 388.376 172.299 382.539 172.694V123.398C388.376 122.687 394.213 122.133 400.128 121.896V146.94H400.68L407.069 134.615C413.379 134.931 419.689 135.485 425.999 136.275C422.607 141.884 419.216 147.492 415.824 153.259C419.373 160.211 422.923 167.164 426.472 174.274C420.162 173.8 413.852 172.852 407.542 172.536Z" fill="#281F24"/>
<path d="M476.949 186.835V160.291L475.766 159.817L473.636 159.106H471.901C471.672 159.128 471.449 159.195 471.246 159.303C471.043 159.412 470.863 159.56 470.718 159.738C470.365 160.275 470.198 160.914 470.244 161.555V184.623C464.644 182.727 458.965 181.068 453.287 179.646V141.726C456.126 142.464 458.965 143.254 461.805 144.096L465.591 148.678C467.678 147.653 469.971 147.12 472.295 147.12C474.619 147.12 476.913 147.653 478.999 148.678C483.574 150.211 487.658 152.938 490.831 156.578C494.782 156.126 498.773 156.986 502.188 159.027C505.999 160.928 509.36 163.621 512.048 166.927C514.161 169.28 515.388 172.297 515.518 175.459V205.4C510.391 202.24 505.186 199.317 499.743 196.631V170.087L498.639 169.455L496.746 168.665C496.238 168.382 495.671 168.22 495.09 168.191C494.903 168.111 494.702 168.069 494.498 168.069C494.295 168.069 494.094 168.111 493.907 168.191C493.711 168.373 493.554 168.593 493.445 168.837C493.337 169.082 493.279 169.346 493.276 169.613V193.313C487.991 191.18 482.391 188.889 476.949 186.835Z" fill="#281F24"/>
<path d="M540.126 183.991C544.701 187.101 548.545 191.171 551.392 195.919C554.239 200.666 556.02 205.977 556.611 211.483V238.027L549.907 231.549L545.963 223.649C545.161 223.853 544.32 223.853 543.518 223.649C542.441 223.46 541.385 223.169 540.363 222.78L536.971 221.121C535.792 220.432 534.66 219.667 533.58 218.83C531.632 217.349 529.763 215.767 527.98 214.09C526.405 212.542 524.979 210.85 523.721 209.034C522.56 207.277 521.657 205.361 521.039 203.346C520.328 201.262 519.982 199.071 520.013 196.868C520.013 187.862 527.112 187.309 540.126 197.816L542.887 200.186V197.5L540.915 195.683L539.18 194.261C534.965 190.631 530.164 187.746 524.982 185.729C524.351 181.7 523.72 177.829 523.168 173.642C529.346 176.143 535.075 179.639 540.126 183.991ZM535.078 206.032V209.113L538.076 211.483C539.237 212.603 540.602 213.488 542.098 214.09C542.65 214.09 542.887 213.537 542.887 212.747V209.192L540.047 206.743C538.89 205.776 537.618 204.953 536.261 204.294C535.473 204.057 535.078 204.689 535.078 206.032Z" fill="#281F24"/>
<path d="M562.53 256.592V206.19C564.659 208.481 566.789 210.851 568.839 213.3C569.549 215.433 570.338 217.566 571.048 219.778C572.862 218.672 576.175 221.042 580.749 227.678C582.913 230.764 584.788 234.043 586.349 237.474C587.751 240.702 588.911 244.029 589.82 247.428C590.725 250.558 591.385 253.754 591.792 256.987C592.16 259.843 592.344 262.719 592.344 265.598C592.392 267.745 592.207 269.89 591.792 271.997C591.792 273.656 590.924 274.762 590.135 275.157C589.347 275.552 588.164 275.157 586.823 274.13C584.799 272.288 583.022 270.19 581.538 267.889C579.409 264.887 577.2 261.885 574.913 258.962V270.338C570.89 265.361 566.789 260.7 562.53 256.592ZM574.913 233.524V248.692L576.727 251.062C577.614 252.36 578.646 253.553 579.803 254.617C580.434 255.091 580.749 254.617 580.749 253.274V238.422L578.935 235.973C578.147 234.867 577.437 233.998 576.885 233.366C576.551 232.914 576.081 232.581 575.544 232.418C575.149 232.339 574.913 232.655 574.913 233.524Z" fill="#281F24"/>
<path d="M328.432 286.612H311.948V339.7H289.232V286.77H272.747V268.6H328.432V286.612Z" fill="#281F24"/>
<path d="M332.533 311.102C331.843 302.881 334.391 294.715 339.632 288.35C346.334 283.533 354.375 280.943 362.624 280.943C370.872 280.943 378.914 283.533 385.615 288.35C390.282 295.001 392.787 302.933 392.787 311.063C392.787 319.192 390.282 327.124 385.615 333.775C382.494 336.51 378.849 338.578 374.903 339.855C370.956 341.132 366.792 341.59 362.663 341.201C358.557 341.901 354.343 341.607 350.374 340.344C346.404 339.08 342.794 336.884 339.845 333.937C336.896 330.991 334.694 327.381 333.422 323.409C332.15 319.436 331.845 315.217 332.533 311.102ZM356.984 302.333V324.611H360.455C362.485 324.737 364.521 324.469 366.449 323.821C367.711 323.189 368.342 321.925 368.342 319.792V297.514H364.793C362.757 297.413 360.722 297.708 358.798 298.383C357.457 298.936 356.826 300.2 356.826 302.333H356.984Z" fill="#281F24"/>
<path d="M400.522 282.662H423.237V324.611H427.181C429.211 324.738 431.247 324.469 433.176 323.821C433.83 323.393 434.348 322.786 434.67 322.072C434.991 321.358 435.102 320.567 434.99 319.792V282.662H457.705V339.7H446.347L439.722 333.222C437.31 335.942 434.306 338.07 430.941 339.44C427.576 340.81 423.942 341.385 420.319 341.122C415.044 341.586 409.786 340.066 405.57 336.856C403.857 334.888 402.561 332.591 401.761 330.106C400.961 327.621 400.674 324.999 400.916 322.399L400.522 282.662Z" fill="#281F24"/>
<path d="M468.669 339.7V282.82H480.026L486.258 289.14C491.004 284.928 496.866 282.184 503.137 281.24L504.477 302.807C503.402 302.705 502.319 302.705 501.243 302.807L497.379 303.755C496.159 304.132 494.972 304.608 493.829 305.177C492.904 305.618 492.074 306.235 491.384 306.994V339.7H468.669Z" fill="#281F24"/>
</g>
<circle cx="395" cy="395" r="389.015" stroke="#F1CFC8" stroke-width="11.9697"/>
</g>
<path d="M220.978 495.889V450.977H229.96V470.459H230.081L245.011 450.977H254.904L241.127 468.638L257.271 495.889H247.5L235.847 475.739L229.96 483.265V495.889H220.978ZM256.596 481.748V475.375H273.226V481.748H256.596ZM314.503 445.029H322.636V501.412H314.503V445.029ZM320.815 465.846H330.768V472.462H320.815V465.846ZM280.759 481.201H285.493C294.96 481.201 302.425 480.898 310.679 479.441L311.468 486.117C302.972 487.635 295.264 487.877 285.493 487.877H280.759V481.201ZM280.759 450.249H306.977V456.743H288.77V484.418H280.759V450.249ZM340.171 450.006H375.554V456.439H340.171V450.006ZM334.466 488.059H385.265V494.675H334.466V488.059ZM372.155 450.006H380.106V456.5C380.106 464.693 380.106 472.462 377.496 484.721L369.545 483.993C372.155 472.644 372.155 464.451 372.155 456.5V450.006ZM373.855 465.422V471.369L339.503 473.069L338.532 466.575L373.855 465.422ZM430.475 445.151H438.122V475.618H430.475V445.151ZM423.92 456.803H432.842V463.297H423.92V456.803ZM418.579 446.182H426.105V475.254H418.579V446.182ZM392.179 448.792H414.452V473.311H392.179V448.792ZM406.927 454.983H399.704V467.06H406.927V454.983ZM400.008 477.985H407.958V483.022H430.232V477.985H438.122V500.683H400.008V477.985ZM407.958 489.273V494.25H430.232V489.273H407.958ZM459.818 478.41H510.678V484.964H459.818V478.41ZM481.182 480.716H489.193V501.351H481.182V480.716ZM466.13 467.971H505.398V474.343H466.13V467.971ZM466.13 447.336H504.791V453.647H474.081V469.488H466.13V447.336ZM471.835 457.714H503.577V463.844H471.835V457.714ZM531.065 448.974C539.441 448.974 545.57 456.743 545.57 469.002C545.57 481.383 539.441 489.152 531.065 489.152C522.629 489.152 516.56 481.383 516.56 469.002C516.56 456.743 522.629 448.974 531.065 448.974ZM531.065 456.318C526.999 456.318 524.268 460.748 524.268 469.002C524.268 477.378 526.999 481.869 531.065 481.869C535.192 481.869 537.863 477.378 537.863 469.002C537.863 460.748 535.192 456.318 531.065 456.318ZM554.796 445.029H562.807V501.412H554.796V445.029ZM543.204 465.3H558.194V471.794H543.204V465.3Z" fill="black"/>
<defs>
<linearGradient id="paint0_linear_450_1745" x1="175.336" y1="205.163" x2="616.629" y2="645.831" gradientUnits="userSpaceOnUse">
<stop stop-color="#E4DACC"/>
<stop offset="0.49" stop-color="#F1CFC8"/>
<stop offset="1" stop-color="#4F66E5"/>
</linearGradient>
<clipPath id="clip0_450_1745">
<rect width="790" height="790" fill="white"/>
</clipPath>
</defs>
</svg>
