<svg width="172" height="172" viewBox="0 0 172 172" fill="none" xmlns="http://www.w3.org/2000/svg">
<circle cx="86" cy="86" r="86" fill="#E0EAFF"/>
<g clip-path="url(#clip0_1091_511)">
<path d="M133.561 36H38.1163C36.9693 36 36 36.9724 36 38.1232V108.885C36 110.036 36.9693 111.008 38.1163 111.008H76.2262L70.0388 123.423H65.1599C64.1906 123.423 63.3667 124.071 63.2052 125.06L61.5735 131.754H52.7851C51.6381 131.754 50.6688 132.742 50.6688 133.877C50.6688 135.011 51.6381 136 52.7851 136H123.318C124.465 136 125.435 135.028 125.435 133.877C125.435 132.726 124.449 131.754 123.318 131.754H114.53L112.898 125.06C112.737 124.088 111.751 123.423 110.943 123.423H106.065L99.8772 111.008H133.916C135.063 111.008 136.032 110.036 136.032 108.885V38.1232C135.709 36.9724 134.724 36 133.593 36H133.561ZM131.444 40.2464V94.3306H40.2326V40.2464H131.444ZM110.103 131.754H65.6446L66.63 127.669H108.973L110.12 131.754H110.103ZM101.153 123.423H74.6107L80.7981 111.008H94.8045L101.153 123.423ZM40.2326 106.762V98.4311H131.606V106.762H40.2326Z" fill="#313457"/>
<path d="M56.8564 88.788V88.9501C57.1795 89.7604 58.0034 90.2629 58.8112 90.2629C114.675 90.2629 112.882 90.2629 113.383 90.1008C113.706 89.9387 114.029 89.7766 114.352 89.4525L114.514 89.2904L114.675 89.1283V88.8042V88.318C114.675 45.0116 114.675 46.6486 114.675 46.4865C114.675 46.0003 114.514 45.6762 114.191 45.3358C113.868 44.8496 113.222 44.6875 112.721 44.6875H58.4719C57.9873 44.6875 57.5026 45.0116 57.1634 45.3358C56.8403 45.6599 56.6787 46.1462 56.6787 46.8107C56.8403 90.9274 56.6787 88.1559 56.8403 88.8042L56.8564 88.788ZM84.3685 72.2726C85.1763 72.9209 86.3233 72.9209 87.1311 72.2726L110.588 51.0246V83.5368L96.4202 71.446C95.6125 70.6356 94.3039 70.7977 93.4962 71.6081C92.6884 72.4185 92.85 73.7313 93.6577 74.5578L106.856 85.8382H64.5139L77.7126 74.5578C78.5204 73.7475 78.6981 72.4347 78.0357 71.6081C77.228 70.7977 75.9194 70.6356 75.1117 71.446L60.9437 83.5368V51.0408L84.4008 72.2888L84.3685 72.2726ZM64.3362 48.5773H107.503L85.8386 68.0262L64.3362 48.5773Z" fill="#313457"/>
</g>
<defs>
<clipPath id="clip0_1091_511">
<rect width="100" height="100" fill="white" transform="translate(36 36)"/>
</clipPath>
</defs>
</svg>
