<svg width="128" height="128" viewBox="0 0 128 128" fill="none" xmlns="http://www.w3.org/2000/svg">
<circle cx="64" cy="64" r="64" fill="#5A43C2"/>
<path d="M33.3395 32.7998C32.6146 32.7998 32.002 33.4144 32.002 34.1417V78.8631C32.002 79.5903 32.6146 80.2049 33.3395 80.2049H57.4249L53.5145 88.0511H50.431C49.8184 88.0511 49.2977 88.4609 49.1956 89.0857L48.1644 93.3161H42.6102C41.8852 93.3161 41.2726 93.9409 41.2726 94.658C41.2726 95.375 41.8852 95.9998 42.6102 95.9998H87.1871C87.912 95.9998 88.5246 95.3852 88.5246 94.658C88.5246 93.9307 87.9018 93.3161 87.1871 93.3161H81.6328L80.6016 89.0857C80.4995 88.4711 79.8767 88.0511 79.3662 88.0511H76.2828L72.3724 80.2049H93.8849C94.6098 80.2049 95.2224 79.5903 95.2224 78.8631V34.1417C95.0182 33.4144 94.3954 32.7998 93.6807 32.7998H33.3395ZM92.3227 35.4835V69.6648H34.677V35.4835H92.3227ZM50.7373 93.3161L51.3601 90.7348H78.1206L78.8455 93.3161H50.7373ZM73.1789 88.0511H56.4039L60.3143 80.2049H69.1664L73.1789 88.0511ZM34.677 77.5212V72.2563H92.4248V77.5212H34.677Z" fill="white"/>
<path d="M45.1823 66.1621V66.2645C45.3865 66.7767 45.9072 67.0942 46.4177 67.0942C81.7239 67.0942 80.5906 67.0942 80.9071 66.9918C81.1113 66.8894 81.3155 66.7869 81.5197 66.5821L81.7239 66.3772V65.8651C81.7239 38.4955 81.7239 39.53 81.7239 39.4276C81.7239 39.1203 81.6218 38.9154 81.4176 38.7003C81.2134 38.393 80.805 38.2906 80.4885 38.2906H46.2033C45.897 38.2906 45.5907 38.4955 45.3763 38.7003C45.1721 38.9052 45.07 39.2125 45.07 39.6325C45.1721 67.5142 45.07 65.7626 45.1721 66.1724L45.1823 66.1621ZM62.5699 55.7244C63.0804 56.1341 63.8053 56.1341 64.3158 55.7244L79.1408 42.2957V62.8434L70.1866 55.202C69.6761 54.6898 68.8491 54.7923 68.3386 55.3044C67.8281 55.8166 67.9302 56.6463 68.4407 57.1687L76.7823 64.2979H50.0218L58.3634 57.1687C58.8739 56.6565 58.9862 55.8268 58.5676 55.3044C58.0571 54.7923 57.2301 54.6898 56.7196 55.202L47.7654 62.8434V42.3059L62.5904 55.7346L62.5699 55.7244ZM49.9095 40.749H77.1907L63.499 53.0407L49.9095 40.749Z" fill="white"/>
</svg>
