<svg width="128" height="128" viewBox="0 0 128 128" fill="none" xmlns="http://www.w3.org/2000/svg">
<g style="mix-blend-mode:multiply">
<circle cx="64" cy="64" r="64" fill="#6D54CE" fill-opacity="0.3"/>
</g>
<g clip-path="url(#clip0_1208_824)">
<path d="M93.6583 32.7988H33.3375C32.6126 32.7988 32 33.4134 32 34.1407V78.8621C32 79.5894 32.6126 80.2039 33.3375 80.2039H57.4229L53.5125 88.0502H50.4291C49.8165 88.0502 49.2958 88.4599 49.1937 89.0847L48.1625 93.3151H42.6082C41.8833 93.3151 41.2707 93.94 41.2707 94.657C41.2707 95.374 41.8833 95.9988 42.6082 95.9988H87.1851C87.91 95.9988 88.5226 95.3842 88.5226 94.657C88.5226 93.9297 87.8998 93.3151 87.1851 93.3151H81.6309L80.5997 89.0847C80.4976 88.4701 79.8748 88.0502 79.3643 88.0502H76.2808L72.3704 80.2039H93.8829C94.6078 80.2039 95.2204 79.5894 95.2204 78.8621V34.1407C95.0162 33.4134 94.3934 32.7988 93.6787 32.7988H93.6583ZM92.3208 35.4825V69.6638H34.675V35.4825H92.3208ZM78.8333 93.3151H50.7354L51.3582 90.7339H78.1186L78.8436 93.3151H78.8333ZM73.177 88.0502H56.4019L60.3124 80.2039H69.1645L73.177 88.0502ZM34.675 77.5203V72.2553H92.4229V77.5203H34.675Z" fill="white"/>
<path d="M45.1807 66.1615V66.264C45.3849 66.7761 45.9056 67.0937 46.4161 67.0937C81.7223 67.0937 80.589 67.0937 80.9055 66.9912C81.1097 66.8888 81.3139 66.7864 81.5181 66.5815L81.6202 66.4791L81.7223 66.3766V66.1718V65.8645C81.7223 38.4949 81.7223 39.5295 81.7223 39.427C81.7223 39.1197 81.6202 38.9149 81.416 38.6998C81.2118 38.3925 80.8034 38.29 80.4869 38.29H46.2017C45.8954 38.29 45.5891 38.4949 45.3747 38.6998C45.1705 38.9046 45.0684 39.2119 45.0684 39.6319C45.1705 67.5136 45.0684 65.7621 45.1705 66.1718L45.1807 66.1615ZM62.5683 55.7238C63.0788 56.1335 63.8037 56.1335 64.3142 55.7238L79.1392 42.2951V62.8428L70.185 55.2014C69.6745 54.6893 68.8475 54.7917 68.337 55.3038C67.8265 55.816 67.9286 56.6457 68.4391 57.1681L76.7807 64.2973H50.0202L58.3618 57.1681C58.8723 56.6559 58.9846 55.8262 58.566 55.3038C58.0555 54.7917 57.2285 54.6893 56.718 55.2014L47.7638 62.8428V42.3053L62.5887 55.7341L62.5683 55.7238ZM49.9079 40.7484H77.1891L63.4974 53.0401L49.9079 40.7484Z" fill="white"/>
</g>
<defs>
<clipPath id="clip0_1208_824">
<rect width="63.2" height="63.2" fill="white" transform="translate(32 32.7988)"/>
</clipPath>
</defs>
</svg>
