<svg width="36" height="36" viewBox="0 0 36 36" fill="none" xmlns="http://www.w3.org/2000/svg">
<path d="M23.4801 13.9341C23.8706 13.5436 23.8706 12.9104 23.4801 12.5199C23.0896 12.1294 22.4564 12.1294 22.0659 12.5199L23.4801 13.9341ZM12.5199 22.0659C12.1294 22.4564 12.1294 23.0896 12.5199 23.4801C12.9104 23.8706 13.5436 23.8706 13.9341 23.4801L12.5199 22.0659ZM22.0659 23.4801C22.4564 23.8706 23.0896 23.8706 23.4801 23.4801C23.8706 23.0896 23.8706 22.4564 23.4801 22.0659L22.0659 23.4801ZM13.9341 12.5199C13.5436 12.1294 12.9104 12.1294 12.5199 12.5199C12.1294 12.9104 12.1294 13.5436 12.5199 13.9341L13.9341 12.5199ZM31.5 18H30.5C30.5 24.9036 24.9036 30.5 18 30.5V31.5V32.5C26.0081 32.5 32.5 26.0081 32.5 18H31.5ZM18 31.5V30.5C11.0964 30.5 5.5 24.9036 5.5 18H4.5H3.5C3.5 26.0081 9.99187 32.5 18 32.5V31.5ZM4.5 18H5.5C5.5 11.0964 11.0964 5.5 18 5.5V4.5V3.5C9.99187 3.5 3.5 9.99187 3.5 18H4.5ZM18 4.5V5.5C24.9036 5.5 30.5 11.0964 30.5 18H31.5H32.5C32.5 9.99187 26.0081 3.5 18 3.5V4.5ZM22.773 13.227L22.0659 12.5199L17.2929 17.2929L18 18L18.7071 18.7071L23.4801 13.9341L22.773 13.227ZM18 18L17.2929 17.2929L12.5199 22.0659L13.227 22.773L13.9341 23.4801L18.7071 18.7071L18 18ZM22.773 22.773L23.4801 22.0659L18.7071 17.2929L18 18L17.2929 18.7071L22.0659 23.4801L22.773 22.773ZM18 18L18.7071 17.2929L13.9341 12.5199L13.227 13.227L12.5199 13.9341L17.2929 18.7071L18 18Z" fill="white"/>
</svg>
