<svg width="36" height="36" viewBox="0 0 81 81" fill="none" xmlns="http://www.w3.org/2000/svg">
<circle cx="40.5" cy="40.5" r="39.75" stroke="white" stroke-width="1.5"/>
<path d="M55 52.8077C55 55.5535 52.4275 57.7833 49.2533 57.7833C48.0839 57.7918 46.9354 57.4747 45.9374 56.868C44.2493 58.2369 42.1412 58.9893 39.9639 58.9999C37.7866 59.0105 35.6712 58.2788 33.9697 56.9265C32.9911 57.4926 31.8785 57.7883 30.7467 57.7833C27.5725 57.7833 25 55.5535 25 52.8077V34.9161C25 27.7838 31.8031 22 40.0391 22C47.6394 22 53.9142 26.9269 54.8337 33.29C54.9163 33.8281 54.9572 34.3717 54.956 34.9161L55 52.8077Z" fill="white"/>
</svg>
