<svg width="40" height="40" viewBox="0 0 40 40" fill="none" xmlns="http://www.w3.org/2000/svg">
<rect x="0.5" y="0.5" width="39" height="39" rx="19.5" fill="white" fill-opacity="0.56"/>
<rect x="0.5" y="0.5" width="39" height="39" rx="19.5" stroke="black"/>
<path d="M28.8933 27.3181C28.8933 28.9508 27.359 30.2766 25.4658 30.2766C24.7683 30.2816 24.0833 30.0931 23.488 29.7323C22.4811 30.5463 21.2238 30.9936 19.9251 30.9999C18.6265 31.0063 17.3648 30.5712 16.3499 29.7671C15.7662 30.1037 15.1026 30.2796 14.4276 30.2766C12.5344 30.2766 11 28.9508 11 27.3181V16.6798C11 12.439 15.0577 9 19.97 9C24.5031 9 28.2457 11.9295 28.7942 15.713C28.8434 16.0329 28.8678 16.3562 28.8671 16.6798L28.8933 27.3181Z" fill="white"/>
</svg>
