<svg width="80" height="80" viewBox="0 0 80 80" fill="none" xmlns="http://www.w3.org/2000/svg">
<rect x="1.5" y="1.5" width="77" height="77" rx="38.5" fill="black"/>
<rect x="1.5" y="1.5" width="77" height="77" rx="38.5" stroke="#F1CFC8" stroke-width="3"/>
<path d="M57.2487 40.0007H59.1654M52.457 25.6257L51.4987 26.584M20.832 40.0007H22.7487M39.9987 20.834V22.7507M26.4459 26.4479L27.801 27.803M39.9987 40.0007V51.5007M30.4154 40.0007C30.4154 37.459 31.425 35.0214 33.2223 33.2242C35.0195 31.427 37.457 30.4173 39.9987 30.4173V30.4173C42.5404 30.4173 44.9779 31.427 46.7751 33.2242C48.5724 35.0214 49.582 37.459 49.582 40.0007V51.5007H30.4154V40.0007ZM26.582 55.334C26.582 54.3173 26.9859 53.3423 27.7048 52.6234C28.4237 51.9045 29.3987 51.5007 30.4154 51.5007H49.582C50.5987 51.5007 51.5737 51.9045 52.2926 52.6234C53.0115 53.3423 53.4154 54.3173 53.4154 55.334V59.1673H26.582V55.334Z" stroke="white" stroke-width="4.3125" stroke-linecap="round" stroke-linejoin="round"/>
</svg>
