<svg width="127" height="126" viewBox="0 0 127 126" fill="none" xmlns="http://www.w3.org/2000/svg">
<g clip-path="url(#clip0_786_5417)">
<path d="M22.8541 0H102.906L119.208 17.7391V89.0586L49.9059 94.2306H119.208L126.989 107.161V113.07L113.645 126H44.7071L27.2907 108.998V95.6938L42.1134 83.8639L63.2384 80.1664L78.0611 65.0132H66.5715L91.405 53.1834C91.405 53.1834 99.1861 42.1021 102.155 32.4953C105.124 22.8885 107.343 17.7164 107.343 17.7164L28.0415 89.0586V38.8015L24.7084 36.2155H19.1456L8.03137 20.3251V14.7788L22.8541 0Z" fill="#6172E2"/>
<path d="M19.7712 95.0918L24.2192 98.5398L13.5941 113.069H0L19.7712 95.0918Z" fill="#6172E2"/>
</g>
<defs>
<clipPath id="clip0_786_5417">
<rect width="127" height="126" fill="white"/>
</clipPath>
</defs>
</svg>
