<svg width="20" height="20" viewBox="0 0 20 20" fill="none" xmlns="http://www.w3.org/2000/svg">
<path fill-rule="evenodd" clip-rule="evenodd" d="M15.4946 10.8348C15.404 10.7626 15.3579 10.6486 15.3697 10.5334C15.3874 10.3596 15.3991 10.1838 15.3991 9.99996C15.3991 9.81615 15.3874 9.64031 15.3697 9.46656C15.3579 9.3513 15.404 9.23729 15.4946 9.16509L16.8672 8.07129C17.0039 7.96129 17.0399 7.76329 16.9535 7.60196L15.5143 5.06463C15.4495 4.94729 15.3271 4.88129 15.1976 4.88129C15.1544 4.88129 15.1113 4.88863 15.0753 4.90329L13.4627 5.56322C13.3519 5.6086 13.2256 5.59033 13.1289 5.51965C12.8497 5.3157 12.5547 5.13968 12.2409 4.99443C12.1341 4.94499 12.0571 4.84651 12.0407 4.72998L11.7937 2.97463C11.7721 2.79863 11.621 2.66663 11.4411 2.66663H8.56256C8.38265 2.66663 8.23153 2.79863 8.20994 2.97463L7.96293 4.72998C7.94653 4.84651 7.8695 4.94495 7.76286 4.99471C7.44866 5.14131 7.15321 5.32113 6.87368 5.52269C6.77768 5.59192 6.65298 5.60908 6.54344 5.56425L4.92839 4.90329C4.88521 4.88863 4.84203 4.88129 4.79886 4.88129C4.67652 4.88129 4.55418 4.94729 4.48941 5.06463L3.05014 7.60196C2.95658 7.76329 2.99976 7.96129 3.13649 8.07129L4.50911 9.16509C4.59972 9.23729 4.64574 9.3513 4.6341 9.46658C4.61634 9.6424 4.60455 9.82118 4.60455 9.99996C4.60455 10.1787 4.61634 10.3575 4.6341 10.5333C4.64574 10.6486 4.59972 10.7626 4.50911 10.8348L3.13649 11.9286C2.99976 12.0386 2.96378 12.2366 3.05014 12.398L4.48941 14.9353C4.55418 15.0526 4.67652 15.1186 4.80605 15.1186C4.84923 15.1186 4.89241 15.1113 4.92839 15.0966L6.54092 14.4367C6.65181 14.3913 6.77806 14.4096 6.8748 14.4803C7.15396 14.6842 7.44901 14.8602 7.76273 15.0055C7.86952 15.0549 7.94653 15.1534 7.96293 15.2699L8.20994 17.0253C8.23153 17.2013 8.38265 17.3333 8.56256 17.3333H11.4411C11.621 17.3333 11.7721 17.2013 11.7937 17.0253L12.0407 15.2699C12.0571 15.1534 12.1342 15.055 12.2408 15.0052C12.555 14.8586 12.8505 14.6788 13.13 14.4772C13.226 14.408 13.3507 14.3908 13.4602 14.4357L15.0753 15.0966C15.1185 15.1113 15.1616 15.1186 15.2048 15.1186C15.3271 15.1186 15.4495 15.0526 15.5143 14.9353L16.9535 12.398C17.0399 12.2366 17.0039 12.0386 16.8672 11.9286L15.4946 10.8348Z" stroke="#00FFC2" stroke-linecap="round" stroke-linejoin="round"/>
</svg>
