<svg width="8" height="8" viewBox="0 0 8 8" fill="none" xmlns="http://www.w3.org/2000/svg">
<path d="M4.56635 0.16466C4.73543 0.272202 4.87035 0.425711 4.95529 0.607195L5.73047 2.27095L7.39423 3.04746C7.57534 3.13257 7.72849 3.26747 7.83576 3.4364C7.94303 3.60533 8 3.80131 8 4.00142C8 4.20153 7.94303 4.39751 7.83576 4.56644C7.72849 4.73537 7.57534 4.87028 7.39423 4.95538L5.73047 5.73189L4.95396 7.39565C4.86886 7.57676 4.73395 7.72991 4.56502 7.83718C4.39609 7.94445 4.20011 8.00142 4 8.00142C3.79989 8.00142 3.60391 7.94445 3.43498 7.83718C3.26605 7.72991 3.13114 7.57676 3.04604 7.39565L2.26953 5.73189L0.605773 4.95538C0.424659 4.87028 0.271512 4.73537 0.164239 4.56644C0.0569662 4.39751 0 4.20153 0 4.00142C0 3.80131 0.0569662 3.60533 0.164239 3.4364C0.271512 3.26747 0.424659 3.13257 0.605773 3.04746L2.26953 2.27095L3.04604 0.607195C3.13099 0.425711 3.26591 0.272202 3.43498 0.16466C3.60406 0.0571185 3.80029 0 4.00067 0C4.20105 0 4.39728 0.0571185 4.56635 0.16466Z" fill="#00FFC2"/>
</svg>
