<svg width="198" height="198" viewBox="0 0 198 198" fill="none" xmlns="http://www.w3.org/2000/svg">
<path d="M99.1583 198C153.747 198 198 153.676 198 99C198 44.3238 153.747 0 99.1583 0C44.5694 0 0.316406 44.3238 0.316406 99C0.316406 153.676 44.5694 198 99.1583 198Z" fill="black"/>
<mask id="mask0_2082_2853" style="mask-type:luminance" maskUnits="userSpaceOnUse" x="0" y="0" width="199" height="198">
<path d="M99.1583 198C153.747 198 198 153.676 198 99C198 44.3238 153.747 0 99.1583 0C44.5694 0 0.316406 44.3238 0.316406 99C0.316406 153.676 44.5694 198 99.1583 198Z" fill="white"/>
</mask>
<g mask="url(#mask0_2082_2853)">
<path d="M198 0H0.316399V198H198V0Z" fill="#6D54CE"/>
<path d="M24.3152 0H23.1291V198H24.3152V0Z" fill="#281F24"/>
<path d="M49.3415 0H48.1554V198H49.3415V0Z" fill="#281F24"/>
<path d="M74.3885 0H73.2024V198H74.3885V0Z" fill="#281F24"/>
<path d="M99.435 0H98.2489V198H99.435V0Z" fill="#281F24"/>
<path d="M124.481 0H123.295V198H124.481V0Z" fill="#281F24"/>
<path d="M149.528 0H148.342V198H149.528V0Z" fill="#281F24"/>
<path d="M174.575 0H173.389V198H174.575V0Z" fill="#281F24"/>
<path d="M197.684 23.166H0.000106812V24.354H197.684V23.166Z" fill="#281F24"/>
<path d="M197.684 48.2324H0.000106812V49.4204H197.684V48.2324Z" fill="#281F24"/>
<path d="M197.684 73.3203H0.000106812V74.5083H197.684V73.3203Z" fill="#281F24"/>
<path d="M197.684 98.4062H0.000106812V99.5942H197.684V98.4062Z" fill="#281F24"/>
<path d="M197.684 123.492H0.000106812V124.68H197.684V123.492Z" fill="#281F24"/>
<path d="M197.684 148.58H0.000106812V149.768H197.684V148.58Z" fill="#281F24"/>
<path d="M197.684 173.666H0.000106812V174.854H197.684V173.666Z" fill="#281F24"/>
<path d="M159.788 149.054C159.788 160.222 149.39 169.29 136.56 169.29C131.833 169.324 127.191 168.035 123.157 165.568C116.334 171.135 107.813 174.195 99.0123 174.238C90.2116 174.281 81.6614 171.305 74.7838 165.805C70.8285 168.108 66.3312 169.311 61.7565 169.29C48.9268 169.29 38.5287 160.222 38.5287 149.054V76.2894C38.5287 47.2824 66.0265 23.76 99.3164 23.76C130.036 23.76 155.399 43.7976 159.116 69.6762C159.45 71.8647 159.615 74.0756 159.61 76.2894L159.788 149.054Z" fill="url(#paint0_linear_2082_2853)"/>
<path d="M52.9994 61.8159V66.9837C52.0505 68.3301 51.1412 69.7161 50.2911 71.1615V59.2815C51.1412 57.8361 52.0505 56.4501 52.9994 55.1037V59.9547C52.9889 59.7635 52.9889 59.5718 52.9994 59.3805C53.021 59.1939 53.054 59.0087 53.0982 58.8261C53.5727 56.8461 54.0273 54.8661 54.5216 53.0049C55.589 51.6387 56.7159 50.3121 57.902 49.0449C57.0915 51.8565 56.3007 54.6879 55.5297 57.5589L57.981 60.8457C56.7949 62.0865 55.6681 63.4065 54.6006 64.8057L53.0982 62.5485C53.0501 62.4693 53.0166 62.3822 52.9994 62.2911C52.9858 62.133 52.9858 61.974 52.9994 61.8159Z" fill="#281F24"/>
<path d="M68.4773 52.1738C66.6834 53.332 64.9544 54.5878 63.298 55.9358V44.0558C64.9544 42.7078 66.6834 41.452 68.4773 40.2938C69.3154 39.7177 70.2349 39.2705 71.2053 38.9672C71.784 38.7427 72.4255 38.7427 73.0042 38.9672C73.2515 39.1127 73.4667 39.3072 73.6366 39.5386C73.8065 39.7701 73.9277 40.0338 73.9927 40.3136C74.2047 41.1544 74.2979 42.0208 74.2694 42.8876C74.2762 43.8581 74.1835 44.8268 73.9927 45.7784C73.7995 46.6082 73.4651 47.3986 73.0042 48.1148C72.5021 48.8575 71.8963 49.5243 71.2053 50.0948C70.344 50.8489 69.4326 51.5435 68.4773 52.1738ZM68.4773 43.2836L66.9156 44.333V50.1344L68.4773 49.085C68.8989 48.8427 69.2848 48.5428 69.6238 48.194C69.8714 47.9023 69.9987 47.527 69.9797 47.1446V43.3826C69.9797 42.947 69.8611 42.7292 69.6238 42.749C69.2316 42.8585 68.863 43.0398 68.5366 43.2836H68.4773Z" fill="#281F24"/>
<path d="M80.5957 36.5118C83.9761 35.3634 85.7157 36.0762 85.7157 38.1552V44.808L83.5808 45.3624L82.3749 44.6496C82.1458 44.9392 81.8946 45.2106 81.6237 45.4614C81.3272 45.7188 81.0109 45.9564 80.6946 46.194C80.3702 46.4173 80.0336 46.6222 79.6864 46.8078C79.3776 46.9879 79.0534 47.1403 78.7178 47.2632C78.2091 47.4777 77.6789 47.637 77.1363 47.7384C76.7528 47.8294 76.3534 47.8294 75.97 47.7384C75.6561 47.6254 75.3954 47.3995 75.2385 47.1048C75.0529 46.6741 74.9651 46.2074 74.9815 45.7386C74.9815 43.4814 76.8002 41.3826 80.5957 40.056L81.4458 39.759V39.0858L80.8527 39.2442L80.3387 39.4026C78.922 39.9056 77.5891 40.6199 76.3851 41.5212C76.2269 40.6698 76.0688 39.8382 75.8909 39.0066C77.3307 37.9519 78.9155 37.1116 80.5957 36.5118ZM79.1329 43.5606V44.3328L80.0027 44.016C80.4392 43.8979 80.8487 43.6962 81.2086 43.422C81.3524 43.2643 81.4363 43.0611 81.4458 42.8478V41.9568L80.5957 42.234C80.2021 42.3556 79.8289 42.5359 79.4887 42.7686C79.3708 42.8628 79.2771 42.9838 79.2152 43.1215C79.1533 43.2592 79.1251 43.4098 79.1329 43.5606Z" fill="#281F24"/>
<path d="M87.6534 44.3725V34.8685L89.828 34.4527L91.0338 35.3437C91.9431 34.4813 93.0714 33.8854 94.2956 33.6211L94.5526 37.1851L93.92 37.3039C93.6707 37.365 93.4262 37.4445 93.1886 37.5415C92.9501 37.6212 92.7187 37.7205 92.4967 37.8385C92.3124 37.9267 92.1503 38.0553 92.0223 38.2147V43.5607C90.5594 43.8379 89.0965 44.0755 87.6534 44.3725Z" fill="#281F24"/>
<path d="M102.144 43.2426L100.424 39.4212H100.285V43.1832C98.8028 43.1832 97.3399 43.1832 95.8771 43.2822V30.927C97.3399 30.7488 98.8028 30.6102 100.285 30.5508V36.8274H100.424L102.025 33.7386C103.606 33.8178 105.188 33.9564 106.769 34.1544C105.919 35.5602 105.069 36.966 104.219 38.4114C105.109 40.1538 105.998 41.8962 106.888 43.6782C105.307 43.5594 103.725 43.3218 102.144 43.2426Z" fill="#281F24"/>
<path d="M119.539 46.8273V40.1745L119.243 40.0557L118.709 39.8775H118.274C118.216 39.8829 118.161 39.8997 118.11 39.9268C118.059 39.954 118.014 39.9911 117.977 40.0359C117.889 40.1705 117.847 40.3305 117.859 40.4913V46.2729C116.455 45.7977 115.032 45.3819 113.609 45.0255V35.5215C114.32 35.7063 115.032 35.9043 115.743 36.1155L116.692 37.2639C117.215 37.0069 117.79 36.8733 118.373 36.8733C118.955 36.8733 119.53 37.0069 120.053 37.2639C121.2 37.6481 122.223 38.3316 123.018 39.2439C124.009 39.1304 125.009 39.3461 125.865 39.8577C126.82 40.3339 127.662 41.009 128.336 41.8377C128.866 42.4273 129.173 43.1836 129.206 43.9761V51.4803C127.921 50.6883 126.616 49.9557 125.252 49.2825V42.6297L124.975 42.4713L124.501 42.2733C124.373 42.2023 124.231 42.1616 124.086 42.1545C124.039 42.1343 123.988 42.1239 123.937 42.1239C123.887 42.1239 123.836 42.1343 123.789 42.1545C123.74 42.2 123.701 42.2552 123.674 42.3164C123.646 42.3777 123.632 42.4438 123.631 42.5109V48.4509C122.307 47.9163 120.903 47.3421 119.539 46.8273Z" fill="#281F24"/>
<path d="M135.374 46.1133C136.52 46.8927 137.484 47.9128 138.197 49.1027C138.911 50.2926 139.357 51.6237 139.505 53.0037V59.6565L137.825 58.0329L136.836 56.0529C136.635 56.1041 136.425 56.1041 136.224 56.0529C135.954 56.0056 135.689 55.9326 135.433 55.8351L134.583 55.4194C134.287 55.2466 134.003 55.0548 133.733 54.8451C133.245 54.4738 132.776 54.0773 132.329 53.6572C131.935 53.2691 131.577 52.8449 131.262 52.39C130.971 51.9494 130.744 51.4693 130.59 50.9644C130.412 50.4419 130.325 49.8927 130.333 49.3407C130.333 47.0835 132.112 46.9449 135.374 49.5783L136.065 50.1723V49.4991L135.571 49.0437L135.136 48.6873C134.08 47.7775 132.877 47.0543 131.578 46.5489C131.42 45.5391 131.262 44.5689 131.123 43.5195C132.672 44.1463 134.107 45.0225 135.374 46.1133ZM134.108 51.6375V52.4097L134.86 53.0037C135.151 53.2844 135.493 53.5063 135.868 53.6572C136.006 53.6572 136.065 53.5185 136.065 53.3205V52.4295L135.354 51.8157C135.064 51.5732 134.745 51.3671 134.405 51.2019C134.207 51.1425 134.108 51.3009 134.108 51.6375Z" fill="#281F24"/>
<path d="M140.988 64.3101V51.6777C141.522 52.2519 142.056 52.8459 142.57 53.4597C142.748 53.9943 142.945 54.5289 143.123 55.0833C143.578 54.8061 144.408 55.4001 145.555 57.0633C146.097 57.8367 146.567 58.6586 146.958 59.5185C147.31 60.3274 147.6 61.1613 147.828 62.0133C148.055 62.7978 148.22 63.5988 148.322 64.4091C148.415 65.1248 148.461 65.8457 148.461 66.5673C148.473 67.1054 148.426 67.6431 148.322 68.1711C148.322 68.5869 148.105 68.8641 147.907 68.9631C147.71 69.0621 147.413 68.9631 147.077 68.7057C146.57 68.244 146.125 67.7182 145.753 67.1415C145.219 66.3891 144.665 65.6367 144.092 64.9041V67.7553C143.084 66.5079 142.056 65.3397 140.988 64.3101ZM144.092 58.5285V62.3301L144.547 62.9241C144.769 63.2495 145.028 63.5484 145.318 63.8151C145.476 63.9339 145.555 63.8151 145.555 63.4785V59.7561L145.1 59.1423C144.903 58.8651 144.725 58.6473 144.586 58.4889C144.503 58.3755 144.385 58.2921 144.25 58.2513C144.151 58.2315 144.092 58.3107 144.092 58.5285Z" fill="#281F24"/>
<path d="M82.3159 71.8347H78.1844V85.1403H72.4911V71.8743H68.3595V67.3203H82.3159V71.8347Z" fill="#281F24"/>
<path d="M83.344 77.973C83.1711 75.9124 83.8096 73.8659 85.1231 72.2706C86.8028 71.0634 88.8182 70.4141 90.8856 70.4141C92.953 70.4141 94.9684 71.0634 96.6481 72.2706C97.8178 73.9376 98.4455 75.9255 98.4455 77.9631C98.4455 80.0006 97.8178 81.9886 96.6481 83.6556C95.8657 84.3409 94.9521 84.8594 93.9631 85.1794C92.9741 85.4994 91.9303 85.6142 90.8955 85.5168C89.8664 85.6923 88.8103 85.6186 87.8154 85.3019C86.8205 84.9852 85.9157 84.4346 85.1766 83.6962C84.4375 82.9579 83.8854 82.0531 83.5666 81.0574C83.2478 80.0618 83.1715 79.0042 83.344 77.973ZM89.4722 75.7752V81.3588H90.342C90.8508 81.3904 91.361 81.3232 91.8444 81.1608C92.1607 81.0024 92.3188 80.6856 92.3188 80.151V74.5674H91.4292C90.9191 74.5421 90.4089 74.6161 89.9268 74.7852C89.5908 74.9238 89.4326 75.2406 89.4326 75.7752H89.4722Z" fill="#281F24"/>
<path d="M100.384 70.8438H106.077V81.3575H107.066C107.574 81.3892 108.085 81.322 108.568 81.1596C108.732 81.0522 108.862 80.9 108.942 80.7211C109.023 80.5422 109.051 80.344 109.023 80.1497V70.8438H114.716V85.1394H111.869L110.209 83.5157C109.604 84.1975 108.851 84.7307 108.008 85.074C107.165 85.4174 106.254 85.5617 105.346 85.4957C104.024 85.6121 102.706 85.2309 101.649 84.4266C101.22 83.9332 100.895 83.3576 100.695 82.7348C100.494 82.1119 100.422 81.4547 100.483 80.8031L100.384 70.8438Z" fill="#281F24"/>
<path d="M117.464 85.1403V70.8843H120.311L121.872 72.4683C123.062 71.4127 124.531 70.725 126.103 70.4883L126.439 75.8937C126.169 75.8681 125.898 75.8681 125.628 75.8937L124.66 76.1313C124.354 76.2258 124.057 76.345 123.77 76.4877C123.538 76.5982 123.33 76.7528 123.157 76.9431V85.1403H117.464Z" fill="#281F24"/>
</g>
<circle cx="99" cy="99" r="97.5" stroke="#F1CFC8" stroke-width="3"/>
<path d="M53.9377 129L52.3458 120.693H54.0386L54.6775 124.751C54.7523 125.185 54.8195 125.622 54.8793 126.063C54.9466 126.504 55.0101 126.949 55.0699 127.397H55.1147C55.2044 126.949 55.2941 126.504 55.3838 126.063C55.4734 125.622 55.5594 125.185 55.6416 124.751L56.5944 120.693H58.0181L58.9822 124.751C59.0718 125.177 59.1578 125.615 59.24 126.063C59.3297 126.504 59.4194 126.949 59.509 127.397H59.5651C59.6249 126.949 59.6847 126.504 59.7444 126.063C59.8117 125.622 59.8752 125.185 59.935 124.751L60.5964 120.693H62.1658L60.63 129H58.5674L57.637 124.886C57.5697 124.565 57.5062 124.247 57.4464 123.933C57.3866 123.612 57.3343 123.294 57.2895 122.98H57.2446C57.1848 123.294 57.1213 123.612 57.054 123.933C56.9943 124.247 56.9345 124.565 56.8747 124.886L55.9667 129H53.9377ZM62.7536 126.388V125.2H65.814V126.388H62.7536ZM67.3735 129V120.693H69.6491C70.5011 120.693 71.2297 120.843 71.835 121.142C72.4479 121.441 72.9187 121.893 73.2475 122.498C73.5838 123.104 73.752 123.873 73.752 124.807C73.752 125.742 73.5875 126.519 73.2587 127.139C72.9299 127.759 72.4665 128.227 71.8687 128.54C71.2708 128.847 70.5608 129 69.7388 129H67.3735ZM69.0325 127.655H69.537C70.0601 127.655 70.5085 127.561 70.8822 127.375C71.2633 127.18 71.5548 126.874 71.7566 126.455C71.9584 126.029 72.0592 125.48 72.0592 124.807C72.0592 124.135 71.9584 123.597 71.7566 123.193C71.5548 122.782 71.2633 122.487 70.8822 122.308C70.5085 122.121 70.0601 122.027 69.537 122.027H69.0325V127.655ZM76.7772 129.157C76.411 129.157 76.0859 129.078 75.8019 128.922C75.5254 128.757 75.3087 128.533 75.1517 128.249C75.0023 127.965 74.9275 127.644 74.9275 127.285C74.9275 126.62 75.2152 126.104 75.7907 125.738C76.3661 125.364 77.2816 125.11 78.5371 124.976C78.5297 124.766 78.4923 124.583 78.425 124.426C78.3578 124.262 78.2457 124.131 78.0887 124.034C77.9393 123.937 77.7338 123.888 77.4722 123.888C77.1807 123.888 76.893 123.944 76.609 124.056C76.325 124.168 76.0373 124.314 75.7458 124.494L75.1629 123.395C75.4095 123.238 75.6711 123.1 75.9476 122.98C76.2241 122.861 76.5156 122.764 76.822 122.689C77.1284 122.607 77.446 122.565 77.7749 122.565C78.3055 122.565 78.7501 122.67 79.1088 122.879C79.4676 123.089 79.7366 123.399 79.916 123.81C80.0953 124.221 80.185 124.729 80.185 125.334V129H78.8398L78.7277 128.327H78.6717C78.4026 128.567 78.1112 128.765 77.7973 128.922C77.4834 129.078 77.1434 129.157 76.7772 129.157ZM77.3265 127.868C77.5581 127.868 77.7674 127.815 77.9542 127.711C78.1485 127.599 78.3428 127.446 78.5371 127.251V125.996C78.029 126.056 77.6254 126.141 77.3265 126.254C77.0275 126.366 76.8145 126.5 76.6875 126.657C76.5604 126.807 76.4969 126.975 76.4969 127.162C76.4969 127.408 76.5717 127.588 76.7211 127.7C76.8781 127.812 77.0798 127.868 77.3265 127.868ZM81.8645 129V122.722H83.2097L83.333 123.832H83.3666C83.5983 123.421 83.8711 123.107 84.185 122.891C84.4988 122.674 84.8202 122.565 85.149 122.565C85.3284 122.565 85.4704 122.58 85.575 122.61C85.6871 122.633 85.788 122.663 85.8777 122.7L85.6086 124.124C85.4891 124.094 85.3807 124.071 85.2835 124.056C85.1939 124.034 85.078 124.023 84.936 124.023C84.6969 124.023 84.4428 124.116 84.1738 124.303C83.9122 124.49 83.6917 124.807 83.5124 125.256V129H81.8645ZM86.7579 129V120.054H88.3834V125.413H88.4282L90.5693 122.722H92.3741L90.2218 125.312L92.5759 129H90.7823L89.2577 126.388L88.3834 127.408V129H86.7579ZM93.5233 129V122.722H94.8685L94.9918 123.563H95.0255C95.287 123.294 95.571 123.062 95.8774 122.868C96.1838 122.666 96.5426 122.565 96.9536 122.565C97.402 122.565 97.7607 122.663 98.0298 122.857C98.3063 123.044 98.5193 123.313 98.6687 123.664C98.9677 123.358 99.2741 123.1 99.5879 122.891C99.9093 122.674 100.272 122.565 100.675 122.565C101.348 122.565 101.837 122.79 102.144 123.238C102.458 123.679 102.615 124.296 102.615 125.088V129H100.978V125.289C100.978 124.804 100.907 124.464 100.765 124.269C100.623 124.075 100.403 123.978 100.104 123.978C99.9242 123.978 99.7337 124.038 99.5319 124.157C99.3376 124.269 99.1246 124.445 98.8929 124.684V129H97.2451V125.289C97.2451 124.804 97.1741 124.464 97.0321 124.269C96.8901 124.075 96.6696 123.978 96.3707 123.978C96.1988 123.978 96.0082 124.038 95.799 124.157C95.5972 124.269 95.3879 124.445 95.1712 124.684V129H93.5233ZM105.864 129.157C105.498 129.157 105.173 129.078 104.889 128.922C104.612 128.757 104.396 128.533 104.239 128.249C104.089 127.965 104.014 127.644 104.014 127.285C104.014 126.62 104.302 126.104 104.878 125.738C105.453 125.364 106.369 125.11 107.624 124.976C107.617 124.766 107.579 124.583 107.512 124.426C107.445 124.262 107.333 124.131 107.176 124.034C107.026 123.937 106.821 123.888 106.559 123.888C106.268 123.888 105.98 123.944 105.696 124.056C105.412 124.168 105.124 124.314 104.833 124.494L104.25 123.395C104.496 123.238 104.758 123.1 105.035 122.98C105.311 122.861 105.602 122.764 105.909 122.689C106.215 122.607 106.533 122.565 106.862 122.565C107.392 122.565 107.837 122.67 108.196 122.879C108.554 123.089 108.823 123.399 109.003 123.81C109.182 124.221 109.272 124.729 109.272 125.334V129H107.927L107.815 128.327H107.759C107.49 128.567 107.198 128.765 106.884 128.922C106.57 129.078 106.23 129.157 105.864 129.157ZM106.413 127.868C106.645 127.868 106.854 127.815 107.041 127.711C107.235 127.599 107.43 127.446 107.624 127.251V125.996C107.116 126.056 106.712 126.141 106.413 126.254C106.114 126.366 105.901 126.5 105.774 126.657C105.647 126.807 105.584 126.975 105.584 127.162C105.584 127.408 105.659 127.588 105.808 127.7C105.965 127.812 106.167 127.868 106.413 127.868ZM110.951 131.41V122.722H112.297L112.42 123.373H112.454C112.715 123.148 113.003 122.958 113.317 122.801C113.638 122.644 113.967 122.565 114.303 122.565C114.819 122.565 115.26 122.7 115.626 122.969C115.992 123.231 116.272 123.601 116.467 124.079C116.668 124.55 116.769 125.11 116.769 125.76C116.769 126.478 116.642 127.091 116.388 127.599C116.134 128.107 115.802 128.496 115.391 128.765C114.987 129.026 114.557 129.157 114.101 129.157C113.832 129.157 113.563 129.097 113.294 128.978C113.033 128.858 112.782 128.69 112.543 128.473L112.599 129.493V131.41H110.951ZM113.743 127.801C113.989 127.801 114.213 127.73 114.415 127.588C114.617 127.438 114.778 127.214 114.897 126.915C115.017 126.616 115.077 126.239 115.077 125.783C115.077 125.387 115.032 125.05 114.942 124.774C114.852 124.49 114.718 124.277 114.539 124.135C114.359 123.993 114.124 123.922 113.832 123.922C113.623 123.922 113.418 123.974 113.216 124.079C113.021 124.183 112.816 124.344 112.599 124.561V127.33C112.801 127.509 112.999 127.632 113.193 127.7C113.388 127.767 113.571 127.801 113.743 127.801ZM122.488 129V122.083H120.156V120.693H126.49V122.083H124.147V129H122.488ZM129.328 129.157C128.804 129.157 128.311 129.026 127.848 128.765C127.392 128.503 127.022 128.129 126.738 127.644C126.454 127.15 126.312 126.556 126.312 125.861C126.312 125.166 126.454 124.576 126.738 124.09C127.022 123.597 127.392 123.219 127.848 122.958C128.311 122.696 128.804 122.565 129.328 122.565C129.724 122.565 130.101 122.64 130.46 122.79C130.819 122.939 131.14 123.156 131.424 123.44C131.708 123.716 131.932 124.06 132.097 124.471C132.261 124.875 132.343 125.338 132.343 125.861C132.343 126.556 132.201 127.15 131.917 127.644C131.633 128.129 131.259 128.503 130.796 128.765C130.34 129.026 129.851 129.157 129.328 129.157ZM129.328 127.812C129.612 127.812 129.851 127.733 130.045 127.576C130.247 127.412 130.396 127.184 130.493 126.893C130.598 126.601 130.65 126.257 130.65 125.861C130.65 125.465 130.598 125.121 130.493 124.83C130.396 124.538 130.247 124.314 130.045 124.157C129.851 123.993 129.612 123.911 129.328 123.911C129.044 123.911 128.801 123.993 128.599 124.157C128.405 124.314 128.255 124.538 128.151 124.83C128.053 125.121 128.005 125.465 128.005 125.861C128.005 126.257 128.053 126.601 128.151 126.893C128.255 127.184 128.405 127.412 128.599 127.576C128.801 127.733 129.044 127.812 129.328 127.812ZM135.594 129.157C134.914 129.157 134.42 128.936 134.114 128.496C133.808 128.047 133.654 127.427 133.654 126.635V122.722H135.291V126.433C135.291 126.919 135.362 127.259 135.504 127.453C135.646 127.647 135.874 127.744 136.188 127.744C136.442 127.744 136.662 127.685 136.849 127.565C137.044 127.438 137.245 127.236 137.455 126.96V122.722H139.102V129H137.757L137.634 128.092H137.589C137.32 128.413 137.029 128.671 136.715 128.865C136.401 129.06 136.027 129.157 135.594 129.157ZM140.859 129V122.722H142.205L142.328 123.832H142.361C142.593 123.421 142.866 123.107 143.18 122.891C143.494 122.674 143.815 122.565 144.144 122.565C144.323 122.565 144.465 122.58 144.57 122.61C144.682 122.633 144.783 122.663 144.872 122.7L144.603 124.124C144.484 124.094 144.376 124.071 144.278 124.056C144.189 124.034 144.073 124.023 143.931 124.023C143.692 124.023 143.438 124.116 143.169 124.303C142.907 124.49 142.687 124.807 142.507 125.256V129H140.859Z" fill="black"/>
<defs>
<linearGradient id="paint0_linear_2082_2853" x1="43.9452" y1="51.4206" x2="154.548" y2="161.866" gradientUnits="userSpaceOnUse">
<stop stop-color="#E4DACC"/>
<stop offset="0.49" stop-color="#F1CFC8"/>
<stop offset="1" stop-color="#4F66E5"/>
</linearGradient>
</defs>
</svg>
